<?xml version="1.0" standalone="no"?>
<!DOCTYPE svg PUBLIC "-//W3C//DTD SVG 20010904//EN"
 "http://www.w3.org/TR/2001/REC-SVG-20010904/DTD/svg10.dtd">
<svg version="1.0" xmlns="http://www.w3.org/2000/svg"
 width="489.000000pt" height="327.000000pt" viewBox="0 0 489.000000 327.000000"
 preserveAspectRatio="xMidYMid meet">
<metadata>
Created by potrace 1.12, written by Peter Selinger 2001-2015
</metadata>
<g transform="translate(0.000000,327.000000) scale(0.100000,-0.100000)"
fill="#000000" stroke="none">
<path d="M3265 3260 c-4 -6 -21 -8 -40 -4 -19 3 -35 1 -39 -5 -4 -7 1 -11 14
-11 14 0 19 -4 14 -12 -5 -8 -2 -9 10 -5 10 4 15 3 11 -3 -12 -20 -13 -50 -2
-50 7 -1 -10 -8 -38 -18 -41 -14 -95 -19 -137 -13 -5 1 -8 7 -8 15 0 16 -27
29 -35 17 -3 -5 3 -12 13 -16 16 -6 16 -7 -1 -16 -9 -6 -22 -7 -29 -3 -7 4 -8
3 -4 -4 5 -8 0 -12 -13 -12 -12 0 -21 5 -21 10 0 6 -5 10 -12 10 -9 0 -9 -3
-1 -11 6 -6 9 -18 6 -25 -3 -8 0 -14 7 -14 6 0 8 5 5 10 -3 6 3 10 14 10 25 0
19 -20 -10 -38 -12 -8 -18 -9 -15 -3 4 7 1 8 -8 5 -9 -3 -16 -1 -16 5 0 6 -9
11 -20 11 -28 0 -25 -18 5 -26 14 -3 25 -10 25 -15 0 -6 -8 -5 -19 0 -15 8
-20 7 -24 -8 -3 -15 -1 -18 11 -13 10 3 6 -7 -11 -30 -28 -36 -27 -54 3 -38
17 9 30 4 30 -11 0 -4 -16 -9 -35 -11 -19 -2 -32 -2 -30 1 11 10 -17 28 -39
24 -22 -5 -23 -6 -8 -22 10 -10 20 -16 25 -14 4 2 7 -1 7 -6 0 -6 -9 -11 -20
-11 -11 0 -20 5 -20 10 0 6 -9 1 -20 -10 -10 -10 -17 -28 -15 -39 4 -23 -10
-29 -72 -33 -28 -1 -43 -7 -43 -15 0 -15 -9 -16 -30 -3 -13 8 -12 10 3 10 10
0 15 5 12 10 -3 6 -1 10 4 10 6 0 11 4 11 9 0 6 -12 3 -27 -4 -21 -11 -29 -12
-35 -2 -5 7 -6 0 -2 -15 4 -19 2 -28 -6 -28 -7 0 -10 -7 -5 -17 4 -13 3 -15
-5 -7 -12 12 -57 7 -66 -7 -3 -5 0 -18 7 -30 8 -16 13 -18 19 -9 4 7 13 10 19
6 16 -10 -18 -59 -36 -52 -8 3 -11 1 -8 -4 3 -5 -3 -15 -15 -22 -11 -7 -20
-20 -20 -29 0 -17 -26 -34 -45 -30 -5 1 -4 -4 4 -11 11 -10 14 -10 18 0 3 6 9
12 15 12 6 0 5 -6 -2 -15 -8 -10 -11 -31 -7 -60 5 -35 2 -52 -13 -78 -11 -17
-20 -44 -20 -59 0 -14 -4 -28 -9 -30 -22 -7 -20 -57 3 -81 17 -19 20 -28 13
-45 -6 -12 -16 -22 -23 -22 -8 0 -11 -6 -8 -15 10 -24 19 -18 33 21 8 23 24
40 45 51 30 14 36 14 67 -1 69 -34 81 -51 83 -114 1 -56 2 -57 29 -57 27 1 29
-1 25 -37 -2 -21 -1 -38 3 -38 4 0 9 -9 12 -21 4 -13 10 -18 18 -13 8 5 10 3
4 -5 -4 -7 -8 -32 -10 -55 -1 -23 -6 -52 -9 -64 -5 -14 -3 -22 5 -22 8 0 9 -4
1 -13 -17 -20 -10 -92 8 -92 18 0 28 64 33 210 3 86 8 110 34 170 52 117 57
125 83 133 28 8 196 10 203 2 3 -3 -2 -32 -11 -65 -21 -82 -12 -124 39 -172
76 -73 185 -114 263 -99 43 8 127 82 162 142 15 25 39 51 55 59 26 14 29 14
48 -13 11 -16 30 -60 42 -98 11 -38 30 -90 40 -116 10 -26 19 -62 19 -82 0
-19 6 -37 13 -39 8 -4 9 -6 0 -6 -6 -1 -25 -22 -42 -47 -28 -40 -30 -47 -16
-60 8 -9 15 -24 15 -35 0 -32 30 -22 37 14 11 48 8 92 -5 90 -18 -4 -2 26 17
32 10 3 34 -1 54 -10 43 -18 73 -19 83 -3 5 7 3 8 -6 3 -10 -6 -11 -4 -5 11 4
10 10 31 13 47 2 15 8 27 12 27 5 0 11 8 14 18 7 23 -4 -87 -11 -113 -5 -18
-3 -18 21 4 14 14 26 29 25 35 -2 19 13 56 22 56 5 0 9 8 9 18 0 17 71 62 99
62 24 0 78 48 89 78 8 23 6 35 -7 56 -10 14 -21 23 -24 19 -4 -3 -7 -1 -7 5 0
6 6 15 13 19 15 9 52 147 43 161 -3 6 1 18 10 26 8 9 12 16 7 16 -7 0 -34 50
-40 75 -1 6 -5 21 -8 35 l-7 25 21 -24 c12 -12 18 -27 15 -32 -3 -5 2 -9 10
-9 11 0 16 -10 16 -32 0 -22 3 -28 9 -20 4 7 6 25 3 40 -6 32 -52 101 -68 102
-6 0 -16 11 -22 25 -11 24 -10 25 16 20 15 -3 21 -2 15 1 -7 3 -13 12 -13 20
0 13 -13 19 -34 15 -5 -1 -4 5 3 13 7 8 10 20 6 26 -13 22 15 9 34 -16 12 -15
21 -22 21 -17 0 6 -11 21 -24 35 -16 19 -20 30 -14 42 7 12 5 14 -7 10 -10 -4
-15 0 -15 10 0 9 5 16 10 16 13 0 13 27 0 35 -6 3 -7 -1 -4 -10 5 -11 2 -14
-10 -9 -9 3 -16 17 -16 29 0 27 -10 36 -60 50 -19 6 -35 17 -35 25 0 8 -6 19
-12 23 -7 4 -13 15 -13 22 0 8 -8 15 -18 15 -10 0 -27 8 -38 19 -11 10 -31 22
-44 26 l-24 8 23 18 c20 17 21 20 6 25 -13 5 -14 9 -4 15 8 4 10 11 6 15 -4 4
-15 0 -24 -8 -35 -30 -47 -33 -41 -10 3 12 0 23 -7 25 -7 3 -15 20 -19 37 -5
29 -8 31 -23 19 -11 -10 -17 -11 -20 -3 -2 7 -13 9 -25 6 -14 -3 -26 2 -39 19
-10 13 -19 19 -19 12 0 -6 5 -15 10 -18 6 -3 10 -12 10 -18 0 -7 -14 3 -31 21
-16 17 -34 32 -40 32 -5 0 -9 8 -9 18 0 19 -18 42 -33 42 -5 0 -3 -7 4 -17 12
-14 12 -16 -1 -11 -8 2 -17 21 -20 42 -4 34 -10 40 -45 54 -51 19 -52 21 -35
33 13 9 13 10 0 6 -8 -2 -23 0 -32 5 -16 8 -17 6 -6 -16 6 -14 19 -28 30 -32
10 -3 16 -10 12 -15 -3 -5 -9 -7 -14 -4 -4 3 -11 -3 -14 -12 -5 -12 -9 -14
-18 -5 -15 15 -55 16 -60 1 -7 -21 -36 3 -48 42 -8 23 -20 39 -29 39 -14 0
-14 2 -1 10 12 8 11 10 -7 10 -12 0 -25 -5 -28 -10z m27 -485 c17 -5 25 -12
21 -21 -3 -8 0 -14 6 -14 6 0 11 5 11 11 0 5 10 3 22 -5 12 -9 27 -16 33 -16
5 0 3 5 -5 10 -13 8 -13 10 1 10 9 0 20 -7 23 -16 4 -12 17 -14 55 -11 27 2
54 7 60 11 6 4 11 1 11 -8 0 -9 4 -16 9 -16 5 0 24 -6 42 -14 19 -8 37 -13 40
-13 3 1 13 -5 22 -13 9 -8 23 -21 32 -28 8 -7 13 -18 9 -23 -4 -6 3 -9 16 -7
19 2 23 -2 25 -27 5 -60 11 -69 57 -99 15 -10 31 -15 36 -12 5 3 25 -10 43
-29 31 -32 69 -49 54 -25 -4 6 5 10 19 10 17 0 26 -6 26 -16 0 -8 -4 -13 -10
-9 -5 3 -4 -8 2 -27 10 -28 12 -30 19 -12 7 15 8 13 7 -11 0 -16 4 -41 9 -55
6 -14 8 -31 6 -37 -3 -7 0 -13 6 -13 12 0 14 -41 5 -77 l-6 -22 -57 21 c-31
12 -72 32 -91 45 -19 12 -46 23 -60 23 -27 -1 -64 -23 -54 -33 10 -10 -70 5
-83 16 -7 5 -13 7 -13 3 0 -12 -75 32 -103 60 -20 20 -24 29 -15 35 11 7 -34
32 -112 60 -24 9 -24 9 -5 -7 l20 -17 -20 8 c-69 26 -201 56 -265 61 -68 6
-170 -7 -257 -32 -14 -4 -23 -2 -23 5 0 6 5 11 12 11 6 0 9 3 5 6 -3 4 0 19 8
34 8 15 11 30 8 34 -4 3 2 6 12 6 14 0 15 3 5 15 -10 12 -9 16 4 20 9 3 24 8
34 12 9 3 20 5 25 5 4 -1 7 3 7 8 0 6 -6 10 -14 10 -27 0 -36 60 -12 79 8 7
24 14 36 16 13 2 25 7 28 10 3 3 13 -9 23 -25 14 -22 26 -30 47 -30 37 0 97
40 97 65 0 11 10 36 23 55 12 19 22 41 22 48 0 8 7 11 18 8 9 -3 29 -8 44 -11z"/>
<path d="M1865 1842 c-4 -4 -17 -7 -28 -7 -18 0 -23 -7 -25 -33 -4 -36 13 -66
31 -55 6 3 7 1 3 -5 -4 -7 -22 -12 -39 -13 -18 0 -26 -3 -19 -6 17 -7 15 -21
-5 -26 -10 -3 -3 -5 14 -6 31 -1 32 -3 23 -27 -16 -42 -13 -66 9 -59 18 5 43
-14 40 -31 -1 -5 -1 -21 0 -36 1 -22 5 -26 19 -21 15 6 15 5 3 -10 -7 -9 -20
-17 -27 -17 -8 0 -14 -4 -14 -10 0 -5 9 -10 20 -10 28 0 25 -20 -2 -21 -13 0
-17 -3 -10 -6 22 -9 13 -33 -12 -33 -27 0 -34 -15 -34 -68 -1 -40 -28 -86 -47
-78 -8 3 -17 1 -20 -4 -9 -14 6 -39 20 -34 9 4 12 0 8 -14 -3 -15 -12 -20 -31
-19 -21 2 -28 -3 -30 -19 -2 -12 -14 -27 -27 -34 -23 -12 -23 -14 -7 -27 16
-13 16 -13 -3 -12 -47 5 -72 -30 -43 -59 9 -9 8 -12 -5 -12 -10 0 -20 -7 -23
-15 -4 -8 -12 -15 -19 -15 -19 0 -38 -27 -25 -35 15 -9 12 -31 -7 -50 -16 -16
-16 -18 1 -27 13 -8 15 -13 5 -24 -6 -8 -18 -14 -25 -14 -8 0 -14 -6 -14 -14
0 -18 -23 -27 -52 -20 -69 17 -73 16 -86 -15 -8 -19 -21 -31 -32 -31 -27 0
-62 -49 -55 -77 5 -21 2 -23 -28 -23 -18 0 -60 7 -92 15 -50 13 -70 26 -116
71 -30 31 -63 60 -72 66 -9 5 -17 15 -17 22 0 17 -55 56 -81 56 -12 0 -23 8
-26 20 -3 11 -10 20 -16 20 -6 0 -19 7 -29 17 -10 9 -21 13 -25 10 -8 -8 49
-118 85 -167 15 -19 27 -39 27 -43 0 -4 6 -12 14 -16 7 -5 11 -14 7 -20 -5 -7
-1 -9 8 -5 9 3 16 1 16 -6 0 -23 84 -125 97 -117 5 3 19 -3 32 -12 17 -13 22
-23 16 -39 -3 -12 -14 -22 -23 -21 -11 0 -12 3 -4 6 21 8 13 20 -11 16 -23 -5
-77 29 -77 49 0 5 -9 17 -19 26 -11 10 -37 49 -57 87 -20 39 -54 93 -75 120
-21 28 -44 68 -51 90 -7 21 -19 41 -27 43 -12 4 -13 -11 -7 -89 3 -52 9 -105
12 -119 4 -19 -2 -33 -24 -56 -16 -17 -42 -57 -58 -90 -27 -55 -29 -67 -28
-174 0 -134 13 -188 81 -332 l46 -98 969 0 c532 0 968 2 968 5 0 15 -112 210
-127 222 -53 41 -141 77 -197 80 -48 2 -72 10 -121 40 -79 47 -126 121 -53 82
12 -6 53 -18 92 -26 85 -17 196 -53 196 -65 0 -4 9 -8 20 -8 75 0 183 -111
256 -262 l34 -68 410 0 c225 0 410 2 410 4 0 2 -38 87 -85 189 -46 101 -92
215 -101 252 -14 56 -25 75 -58 107 -23 21 -44 38 -48 38 -5 0 -8 6 -8 14 0 8
-7 16 -15 20 -8 3 -15 16 -15 28 -1 23 -1 23 -14 -2 -7 -14 -16 -47 -20 -74
-6 -48 -21 -70 -38 -60 -5 3 -5 11 -2 17 5 8 3 8 -7 0 -7 -7 -20 -13 -28 -12
-11 0 -12 2 -3 6 29 11 42 59 32 114 -9 47 -8 53 12 70 20 18 20 19 2 20 -17
0 -16 2 4 11 22 11 30 28 13 28 -5 0 -4 11 2 25 7 14 15 25 20 25 4 0 5 11 1
24 -3 13 -1 27 6 31 6 4 15 18 21 32 5 13 13 21 19 18 5 -3 10 -2 10 4 0 5 -6
11 -12 14 -8 3 -6 8 7 13 37 15 60 52 56 88 -2 14 2 17 13 13 10 -4 23 1 33
13 10 11 25 20 33 20 20 0 40 19 40 38 0 10 -11 13 -38 11 -21 -2 -43 0 -49 4
-6 4 -14 1 -17 -5 -3 -7 -3 -2 0 11 6 22 4 23 -27 18 -19 -2 -41 -1 -50 4 -21
11 -66 0 -48 -12 10 -6 9 -9 -6 -14 -11 -4 -28 -11 -37 -16 -11 -5 -28 -5 -45
2 -17 6 -29 7 -31 1 -5 -15 -42 -2 -42 15 0 8 -5 11 -11 8 -5 -4 -18 1 -27 12
-9 10 -23 19 -30 21 -26 5 -62 34 -55 45 4 6 -2 8 -16 4 -18 -4 -20 -3 -11 8
8 9 8 15 0 20 -5 3 -10 2 -10 -4 0 -6 -7 -8 -15 -5 -8 4 -15 1 -15 -5 0 -6
-25 12 -55 41 -30 28 -55 58 -55 65 0 7 -10 13 -22 12 -13 0 -17 -3 -10 -6 6
-2 12 -11 12 -19 0 -8 5 -14 10 -14 6 0 10 -7 10 -15 0 -8 5 -15 11 -15 5 0 8
-4 5 -9 -6 -8 25 -26 32 -19 2 2 10 -9 18 -24 8 -16 19 -28 25 -28 6 0 8 -7 5
-16 -4 -12 -2 -15 9 -10 14 5 20 -5 16 -27 -1 -5 7 -6 18 -2 14 4 22 -1 32
-24 8 -18 18 -27 27 -23 21 8 35 -21 14 -31 -14 -6 -13 -7 4 -4 12 3 39 1 60
-3 35 -7 36 -8 9 -9 -20 -1 -26 -4 -17 -9 17 -11 5 -42 -17 -42 -9 0 -27 -12
-40 -25 -18 -20 -20 -25 -7 -25 9 0 16 -4 16 -10 0 -5 -8 -7 -17 -3 -15 5 -16
3 -6 -7 10 -10 15 -11 27 -1 12 10 15 7 21 -19 4 -17 4 -34 1 -37 -3 -4 -6 4
-6 17 l0 24 -21 -22 c-21 -24 -18 -42 8 -42 9 0 14 -3 10 -6 -9 -9 19 -34 38
-34 9 0 19 -9 22 -20 5 -17 12 -19 49 -16 31 3 42 1 38 -6 -5 -8 -1 -9 11 -4
13 5 15 3 8 -6 -5 -7 -8 -26 -7 -42 4 -44 -13 -69 -43 -63 -29 5 -81 -17 -64
-28 17 -10 13 -25 -5 -25 -9 0 -28 -12 -42 -28 -13 -15 -21 -21 -18 -15 9 17
1 16 -35 -2 -28 -15 -35 -14 -102 9 -157 54 -311 128 -498 237 -118 70 -241
108 -277 85 -6 -3 -22 5 -36 19 -14 14 -30 25 -36 25 -9 0 -15 -28 -11 -58 3
-21 -39 -78 -71 -97 -38 -22 -81 -108 -73 -145 8 -34 -32 -113 -87 -173 -35
-39 -38 -40 -63 -27 -24 13 -30 26 -26 60 2 15 53 65 74 73 7 2 9 8 5 12 -4 4
-21 3 -37 -3 -18 -7 -31 -7 -31 -2 0 20 52 23 83 5 29 -17 31 -17 44 0 18 26
16 43 -7 57 -11 7 -20 23 -20 36 l0 23 -26 -20 c-22 -17 -30 -19 -42 -9 -8 7
-25 13 -36 13 -35 0 -25 30 12 33 17 2 32 8 32 13 0 5 11 7 25 3 16 -4 25 -2
25 5 0 27 59 81 87 81 13 0 23 5 23 10 0 6 7 10 15 10 16 0 36 39 28 53 -3 5
4 15 16 23 15 11 21 26 21 52 0 21 9 55 20 77 26 51 26 80 0 37 -11 -18 -20
-39 -20 -46 0 -8 -5 -16 -12 -18 -7 -3 -17 -27 -23 -54 -7 -33 -16 -50 -28
-52 -12 -2 -17 3 -17 18 0 12 -7 28 -15 37 -8 8 -12 19 -9 25 4 6 10 5 15 -3
5 -8 9 -9 9 -4 0 36 -39 39 -74 6 -12 -12 -29 -21 -37 -21 -8 0 -20 -5 -27
-12 -7 -7 -12 -8 -12 -4 0 5 -7 3 -15 -4 -13 -11 -14 -10 -9 4 3 9 10 16 16
16 5 0 6 5 3 10 -3 6 1 10 11 10 12 0 15 6 12 25 -4 19 -1 24 13 22 10 -1 18
1 19 5 0 4 13 20 28 35 67 71 86 103 60 103 -7 0 7 19 30 43 41 41 53 67 32
67 -5 0 -10 -5 -10 -11 0 -5 -5 -7 -12 -3 -7 5 -9 2 -5 -8 4 -12 -3 -17 -25
-22 -39 -8 -45 -2 -23 21 17 17 17 18 -4 23 -21 5 -21 6 10 43 17 21 29 44 26
51 -3 7 4 21 15 30 16 14 19 25 13 52 -4 22 -2 41 6 50 6 7 9 20 6 27 -3 9 2
13 16 12 22 -2 76 40 65 50 -3 4 -17 0 -30 -9 -17 -11 -32 -13 -58 -6 l-35 8
34 1 c25 1 32 5 27 16 -3 10 1 19 12 23 9 4 17 16 18 27 0 11 4 37 8 57 7 36
6 37 -21 35 -17 -1 -27 3 -26 10 2 7 -1 23 -6 36 -8 19 -15 23 -39 19 -16 -2
-39 1 -50 7 -10 6 -23 7 -27 3z m-87 -1047 c34 -15 44 -38 15 -34 -10 1 -26
-1 -36 -6 -24 -10 -49 12 -28 25 11 6 7 9 -15 12 -47 6 -87 -9 -117 -44 l-28
-33 38 -5 c30 -4 39 -10 41 -27 3 -20 -1 -23 -30 -22 -18 0 -27 3 -20 6 29 12
10 24 -30 19 -50 -7 -63 -16 -23 -16 18 0 25 -4 20 -9 -6 -6 -36 -5 -79 3 -64
12 -70 12 -84 -5 -9 -11 -23 -19 -31 -19 -11 0 -11 3 3 18 15 18 15 19 -9 30
-14 6 -33 9 -42 6 -15 -5 -15 -4 -4 4 12 9 12 13 2 26 -10 12 -9 16 8 25 11 6
27 8 36 5 10 -4 21 -1 26 7 7 11 9 11 9 -2 0 -12 13 -18 43 -23 23 -4 53 -10
67 -13 19 -4 22 -3 14 7 -9 9 -5 18 17 40 16 15 29 29 29 32 0 2 -15 3 -32 2
-33 -3 -33 -3 -4 4 45 11 207 2 244 -13z"/>
<path d="M2414 1774 c4 -12 1 -14 -14 -9 -14 5 -20 2 -20 -10 0 -9 -4 -13 -10
-10 -16 10 -12 -11 5 -25 8 -6 19 -9 25 -5 16 10 12 -16 -5 -29 -20 -15 -43
-97 -35 -121 6 -16 8 -13 11 15 2 19 8 33 13 32 5 -2 13 2 17 10 6 9 9 4 9
-15 0 -16 4 -26 9 -22 11 6 26 -33 17 -42 -3 -4 -6 2 -6 13 0 16 -3 14 -18 -9
-10 -15 -20 -25 -23 -23 -2 2 -2 -20 -1 -50 2 -30 8 -54 13 -54 5 0 8 -5 7
-11 -2 -6 7 -18 20 -26 22 -16 22 -15 12 12 -9 25 -9 26 5 15 13 -11 15 -9 15
11 0 30 15 53 28 45 14 -8 33 51 47 147 l11 79 -44 46 c-26 29 -54 48 -69 49
-18 1 -23 -2 -19 -13z"/>
<path d="M1104 864 c7 -26 7 -27 -38 -22 -47 6 -63 -5 -26 -17 11 -4 32 -17
47 -31 14 -13 30 -24 35 -24 5 0 30 -9 55 -21 51 -23 62 -17 58 30 -7 73 -45
111 -113 111 -21 0 -23 -3 -18 -26z"/>
</g>
</svg>
