<?xml version="1.0" standalone="no"?>
<!DOCTYPE svg PUBLIC "-//W3C//DTD SVG 20010904//EN"
 "http://www.w3.org/TR/2001/REC-SVG-20010904/DTD/svg10.dtd">
<svg version="1.0" xmlns="http://www.w3.org/2000/svg"
 width="1536.000000pt" height="2048.000000pt" viewBox="0 0 1536.000000 2048.000000"
 preserveAspectRatio="xMidYMid meet">
<metadata>
Created by potrace 1.12, written by Peter Selinger 2001-2015
</metadata>
<g transform="translate(0.000000,2048.000000) scale(0.100000,-0.100000)"
fill="#000000" stroke="none">
<path d="M440 20419 c-125 -24 -266 -130 -328 -247 -67 -125 -62 65 -62 -2534
0 -2089 2 -2358 15 -2358 9 0 15 10 16 28 4 110 6 126 17 130 7 2 12 18 12 37
0 18 6 38 14 45 8 6 12 18 9 26 -3 8 0 14 6 14 6 0 11 -7 11 -15 0 -54 51 48
70 140 6 33 16 70 21 83 5 13 7 27 4 32 -9 15 7 40 25 40 23 0 50 31 50 58 0
12 4 22 10 22 5 0 12 17 16 38 4 20 16 45 28 56 14 13 17 20 9 23 -18 6 -6 54
18 75 21 18 49 77 49 103 0 8 9 24 21 36 15 15 20 30 17 52 -4 20 1 36 13 48
10 10 21 31 24 46 20 89 60 143 101 135 18 -3 24 1 29 21 4 14 15 27 25 30 13
3 19 18 24 53 3 27 9 74 14 104 l8 55 8 -35 c8 -30 10 -32 17 -15 4 11 8 34 8
52 1 42 10 63 27 63 9 0 14 -12 15 -32 0 -22 7 -6 19 47 27 120 58 184 94 193
16 4 34 17 40 27 6 11 14 23 19 26 14 11 27 72 17 84 -5 7 -7 15 -4 18 4 4 8
14 9 24 2 28 23 72 45 95 l19 21 19 -23 19 -23 24 34 c39 55 49 79 49 119 0
70 32 121 84 134 17 4 26 13 26 26 0 11 5 20 10 20 6 0 10 6 10 14 0 8 7 16
15 20 8 3 15 14 15 24 0 11 7 25 15 32 9 8 15 30 15 57 0 40 2 44 20 38 16 -5
31 4 66 39 42 43 58 51 93 47 7 -2 20 1 30 5 25 11 41 15 104 25 109 17 122
20 125 30 5 12 42 12 42 -1 0 -5 8 -10 18 -10 14 0 14 2 3 9 -11 7 -10 10 5
14 10 2 1 5 -22 6 -22 0 -65 5 -95 11 -30 5 -76 12 -104 16 -27 4 -44 9 -38
11 10 3 9 10 -2 26 -14 23 -10 67 6 67 5 0 9 7 9 15 0 23 37 55 63 55 26 0 67
41 67 66 0 13 -3 14 -14 4 -13 -10 -13 -7 -3 19 12 31 27 41 27 19 1 -8 6 -5
15 5 7 11 11 25 9 32 -5 13 38 30 64 26 7 -1 28 7 46 18 20 13 55 22 90 24 31
2 62 9 68 15 7 7 20 12 29 12 9 0 22 7 29 15 7 8 21 15 31 15 11 0 19 4 19 10
0 5 11 12 24 16 15 3 23 11 20 19 -3 7 0 16 5 20 6 3 9 10 6 15 -3 5 -1 11 5
15 5 3 10 18 10 33 0 20 3 23 9 13 8 -12 12 -9 23 15 17 38 27 45 60 38 17 -3
29 0 35 9 4 8 31 30 58 49 28 19 54 44 60 56 5 12 13 22 17 22 5 0 8 7 8 15 0
8 8 15 17 15 9 0 25 8 35 17 10 9 28 17 41 18 14 1 21 8 20 19 0 10 9 22 22
28 13 6 25 18 28 28 3 13 11 16 31 13 20 -4 26 -1 26 13 0 16 2 16 10 4 12
-19 15 -15 37 45 14 36 24 49 36 47 11 -2 17 4 17 18 0 24 18 27 27 3 6 -14 7
-14 14 4 5 15 20 22 54 27 38 6 44 10 35 21 -8 10 -9 19 -1 32 10 17 10 17 11
-1 0 -18 1 -18 20 -1 26 23 25 34 -2 44 -21 8 -19 9 15 16 27 5 35 10 25 16
-9 6 -10 9 -1 9 7 0 12 10 10 23 -1 15 3 21 12 19 56 -12 125 -10 139 5 14 14
17 14 23 -3 4 -11 8 -14 8 -8 1 6 15 25 31 42 17 18 30 36 30 42 0 5 8 10 18
10 19 1 72 44 72 60 0 5 5 10 11 10 6 0 26 16 45 35 19 20 50 39 71 44 25 6
30 9 15 10 -33 1 -17 21 17 21 16 0 34 7 41 15 7 8 18 15 26 15 7 0 16 4 19
10 3 6 -1 7 -9 4 -9 -3 -16 -1 -16 5 0 6 9 11 19 11 11 0 21 5 23 10 2 6 28
13 58 17 64 7 110 30 110 55 0 13 8 18 25 18 16 0 25 6 25 16 0 13 8 15 40 12
33 -3 40 0 40 14 0 13 10 21 31 25 17 3 33 12 36 20 5 12 7 12 15 1 7 -10 11
-10 22 5 7 9 18 17 24 17 5 0 8 9 5 20 -8 29 16 72 53 97 33 21 34 21 34 3 0
-11 6 -20 13 -20 15 0 17 51 2 62 -5 4 0 8 13 8 13 0 22 -6 22 -15 0 -8 7 -15
15 -15 9 0 18 7 21 15 4 8 17 15 31 15 19 0 24 4 21 23 -3 20 0 22 41 19 29
-3 46 1 52 10 7 10 9 8 9 -6 0 -27 20 -6 23 23 1 15 12 27 34 36 34 14 42 30
20 38 -6 2 6 8 28 12 22 5 45 16 52 25 8 12 33 20 75 24 70 8 86 15 67 27 -10
6 -5 9 16 9 25 1 27 2 13 11 -24 13 -23 25 2 32 13 3 20 14 20 29 0 12 4 29 9
37 14 22 23 -4 25 -72 2 -44 6 -62 16 -62 7 0 15 6 18 13 2 6 -1 12 -7 12 -13
0 -15 47 -2 54 5 4 11 1 13 -6 2 -6 10 -8 17 -4 7 5 10 15 7 23 -5 13 -1 14
23 10 23 -5 30 -2 34 12 5 19 73 35 83 19 11 -17 33 -8 29 12 -3 16 2 20 21
20 17 0 24 6 24 19 0 16 6 19 45 16 24 -1 42 2 39 6 -7 12 -4625 9 -4684 -2z"/>
<path d="M10478 20422 c72 -2 82 -5 82 -21 0 -15 10 -19 51 -23 27 -3 55 -10
61 -16 8 -8 5 -9 -9 -6 -13 4 -20 0 -20 -9 0 -8 7 -12 17 -10 19 5 73 -88 64
-112 -4 -9 9 -21 41 -35 26 -12 50 -19 53 -16 3 3 -1 6 -9 7 -8 0 -1 5 14 9
16 5 34 7 41 4 19 -7 40 -58 27 -62 -24 -8 -9 -21 37 -32 81 -20 112 -23 112
-11 0 6 -13 11 -29 11 -24 0 -28 3 -24 20 5 19 6 19 33 -1 15 -12 44 -21 64
-22 38 -1 48 -12 19 -20 -15 -4 -15 -5 2 -6 16 -1 20 -8 20 -33 0 -27 4 -34
23 -36 14 -2 22 -10 22 -23 0 -24 8 -24 40 1 34 27 86 27 93 0 3 -13 10 -18
21 -14 12 4 15 2 11 -9 -7 -18 6 -23 70 -26 27 -2 54 -5 58 -8 5 -3 7 -22 3
-42 -5 -34 -3 -38 24 -48 23 -9 30 -18 30 -37 0 -24 3 -26 44 -26 35 0 46 -4
51 -19 3 -11 12 -22 20 -25 8 -3 15 -14 15 -25 0 -18 39 -32 152 -56 19 -3 33
-17 44 -41 9 -20 22 -37 28 -39 6 -2 31 -9 56 -16 45 -12 46 -13 48 -57 2 -50
22 -85 22 -39 0 20 5 27 20 27 18 0 25 -11 21 -34 -1 -5 10 -6 24 -4 21 4 29
0 40 -22 9 -18 26 -31 45 -35 16 -4 30 -11 30 -16 0 -5 9 -9 20 -9 17 0 20 -7
20 -39 0 -22 -3 -41 -7 -44 -5 -2 -2 -2 6 0 7 2 19 -4 25 -12 6 -8 26 -16 43
-18 27 -2 33 -6 33 -24 0 -25 14 -28 54 -13 23 8 26 7 26 -10 0 -13 7 -20 20
-20 15 0 20 -7 20 -29 0 -27 3 -30 38 -33 35 -3 37 -5 35 -35 -3 -36 11 -50
32 -33 12 10 15 10 15 0 0 -10 3 -10 15 0 10 9 15 9 15 1 0 -6 12 -11 27 -11
36 0 22 -11 -24 -20 l-38 -8 42 -1 c23 0 45 -6 48 -12 4 -5 19 -15 33 -21 24
-10 25 -12 7 -16 -10 -2 -21 1 -23 7 -5 16 -22 13 -22 -4 0 -11 11 -15 40 -15
22 0 40 5 40 10 0 6 4 10 9 10 10 0 9 -25 -1 -35 -3 -4 0 -18 8 -33 8 -15 14
-35 14 -44 0 -10 6 -18 13 -18 7 0 25 -6 40 -12 28 -14 35 -36 16 -55 -17 -17
-2 -33 30 -33 32 0 45 -13 55 -52 3 -16 13 -28 21 -28 8 0 15 -7 15 -15 0 -8
9 -20 19 -27 14 -9 17 -16 10 -24 -8 -10 2 -14 38 -19 121 -15 113 -11 113
-60 0 -35 3 -43 15 -39 10 4 18 -3 25 -20 6 -17 17 -26 32 -26 30 0 44 -10 52
-37 4 -12 16 -25 27 -28 10 -4 19 -15 19 -26 0 -33 24 -99 36 -99 6 0 14 -13
18 -30 4 -23 11 -30 29 -30 29 0 47 -18 47 -47 0 -13 4 -23 8 -23 5 0 13 -10
19 -22 6 -13 25 -31 42 -41 27 -16 31 -16 31 -3 0 9 5 16 11 16 6 0 9 -6 6
-14 -3 -8 4 -21 18 -30 15 -10 25 -29 30 -55 3 -22 13 -42 21 -45 8 -3 14 -16
14 -30 0 -21 5 -24 56 -31 46 -5 57 -10 65 -31 6 -17 5 -32 -1 -45 -9 -16 -7
-19 9 -19 21 0 31 -18 31 -56 0 -17 6 -24 19 -24 10 0 21 -9 24 -20 3 -13 10
-18 21 -14 11 4 16 1 16 -11 0 -17 35 -55 51 -55 5 0 11 -11 15 -25 3 -14 14
-29 23 -34 15 -9 15 -12 -1 -39 -23 -38 -22 -42 3 -42 11 0 29 10 38 22 l18
21 22 -22 c12 -12 19 -26 16 -30 -3 -5 2 -22 10 -37 8 -16 15 -35 15 -41 0 -7
3 -12 8 -12 25 4 40 -4 50 -27 7 -14 17 -22 22 -19 6 4 10 -5 10 -20 0 -31 27
-75 47 -75 8 0 12 -4 9 -9 -3 -5 1 -14 9 -21 8 -7 15 -20 15 -30 0 -23 31 -50
58 -50 18 0 22 -6 22 -33 0 -26 6 -36 25 -45 14 -6 25 -19 25 -27 0 -9 13 -28
29 -43 18 -17 30 -41 34 -67 4 -25 15 -47 31 -60 25 -21 38 -87 22 -113 -4 -7
6 -23 27 -42 19 -16 41 -45 48 -62 13 -33 45 -67 64 -68 18 -2 50 -54 69 -112
11 -32 23 -58 28 -58 4 0 8 -9 8 -20 0 -11 5 -20 11 -20 5 0 7 -5 4 -10 -8
-13 4 -50 16 -50 23 0 37 -25 27 -49 -11 -31 -1 -81 17 -81 17 0 58 -57 50
-69 -8 -13 27 -80 43 -81 6 0 12 5 12 10 0 16 22 12 37 -7 8 -10 21 -33 29
-50 8 -18 18 -32 22 -31 4 2 17 -4 28 -12 36 -25 54 -171 24 -190 -7 -4 -10
-13 -6 -19 4 -7 1 -9 -8 -5 -9 3 -17 -3 -21 -18 -4 -13 -12 -29 -18 -37 -17
-20 -20 -61 -5 -61 7 1 32 5 55 9 34 7 45 5 56 -8 15 -17 33 -61 21 -48 -11
10 -34 -13 -34 -33 0 -10 -6 -20 -12 -23 -10 -3 -10 -9 0 -26 17 -29 15 -48
-6 -63 -10 -7 -28 -30 -41 -50 -12 -21 -27 -38 -33 -38 -6 0 -8 -9 -5 -20 3
-13 -1 -21 -14 -25 -10 -4 -19 -12 -19 -18 0 -7 -9 -18 -20 -25 -12 -7 -18
-17 -15 -22 3 -6 2 -10 -3 -10 -4 0 -18 -9 -31 -21 -14 -13 -30 -19 -43 -16
-11 3 -26 0 -32 -6 -17 -17 -27 -47 -16 -47 25 0 -7 -31 -40 -40 -21 -6 -40
-16 -42 -22 -2 -6 -18 -11 -36 -11 -22 0 -32 -5 -33 -16 -1 -22 -38 59 -39 85
0 20 22 98 40 139 5 11 11 38 13 60 3 22 13 65 24 95 24 66 53 163 53 176 0 5
-5 1 -11 -9 -6 -9 -15 -15 -20 -12 -5 4 -12 -7 -15 -24 -4 -17 -10 -31 -15
-31 -5 0 -16 -15 -25 -32 -9 -18 -20 -35 -23 -38 -10 -7 -78 -133 -82 -151 -7
-28 -132 -130 -153 -125 -29 7 -49 -19 -43 -57 3 -18 1 -60 -5 -94 -16 -89 -9
-95 145 -148 83 -28 139 -52 156 -69 16 -15 45 -31 65 -37 41 -11 120 -77 141
-119 7 -14 25 -32 39 -39 14 -8 23 -18 20 -23 -3 -4 13 -27 35 -50 23 -23 41
-45 41 -49 0 -16 -32 -39 -65 -45 -20 -3 -38 -10 -41 -15 -8 -13 -48 -11 -62
3 -9 9 -23 9 -62 -1 -27 -7 -55 -9 -62 -5 -23 14 -181 12 -230 -3 -26 -8 -52
-12 -57 -8 -6 3 -20 -4 -32 -16 -14 -14 -38 -23 -72 -26 -29 -3 -66 -13 -83
-24 -18 -11 -50 -19 -75 -19 -51 0 -64 -7 -73 -37 -4 -13 -15 -23 -24 -23 -21
0 -55 -37 -47 -50 3 -5 -11 -12 -32 -16 -21 -4 -44 -11 -50 -16 -7 -6 -34 -7
-60 -4 -27 4 -72 9 -101 12 -38 4 -56 12 -67 27 -13 18 -15 19 -15 4 0 -9 5
-17 10 -17 6 0 10 -6 10 -13 0 -20 58 -85 83 -93 12 -3 45 -16 72 -29 28 -12
74 -28 102 -35 98 -23 234 -140 314 -270 21 -36 43 -72 49 -80 5 -8 43 -73 84
-144 74 -125 76 -131 82 -210 5 -67 2 -98 -19 -182 -22 -89 -61 -174 -90 -195
-4 -3 -27 -22 -50 -42 -121 -105 -188 -137 -293 -137 -63 0 -120 22 -156 61
-32 34 -43 36 -45 9 -1 -11 2 -20 6 -20 5 0 14 -20 21 -44 18 -65 67 -90 175
-88 52 0 97 7 126 18 59 24 215 136 259 187 19 22 58 66 86 97 28 32 57 74 64
95 7 21 24 49 39 61 14 13 21 24 14 24 -17 0 -4 30 13 30 8 0 14 -5 14 -11 0
-6 7 -9 15 -5 8 3 15 1 15 -4 0 -6 -4 -10 -10 -10 -22 0 -8 -17 25 -30 19 -8
35 -18 35 -24 0 -29 34 44 47 100 15 64 30 81 40 44 3 -11 9 -20 13 -20 11 0
21 43 11 50 -19 13 -19 38 0 43 10 3 19 2 19 -2 0 -4 12 -6 28 -6 20 1 28 7
30 23 2 12 -2 22 -8 22 -7 0 -3 8 8 18 22 19 42 97 42 167 0 24 4 45 9 47 5 2
12 50 15 108 6 88 10 107 27 119 11 8 19 25 19 40 0 24 53 91 72 91 4 0 25 18
48 40 37 36 43 38 67 27 14 -6 20 -13 14 -15 -22 -7 -10 -33 19 -38 28 -6 44
-34 19 -34 -13 0 -1 -42 14 -52 19 -12 27 2 27 48 0 34 -3 43 -12 38 -10 -6
-10 -5 -1 7 18 22 21 6064 3 6129 -47 176 -201 322 -379 359 -38 8 -674 11
-2290 9 -1230 -1 -2199 -4 -2153 -6z m4369 -6248 c17 -8 38 -14 47 -14 9 0 17
-6 18 -12 0 -7 2 -17 2 -23 1 -5 5 -15 9 -21 9 -16 -14 -24 -51 -18 -18 3 -44
-2 -62 -11 -29 -15 -35 -15 -65 -1 -18 9 -40 16 -48 16 -21 0 -39 26 -35 51 2
17 15 27 51 39 52 18 83 17 134 -6z"/>
<path d="M8233 19456 c-20 -17 -37 -23 -55 -19 -20 4 -43 -9 -108 -57 -46 -34
-96 -68 -112 -76 -15 -8 -67 -55 -114 -104 -72 -75 -92 -90 -118 -90 -38 -1
-56 -15 -77 -60 -40 -85 -96 -122 -133 -85 -8 8 -20 15 -26 15 -8 0 -10 9 -6
26 5 19 3 25 -6 22 -7 -3 -13 -13 -13 -24 0 -15 -8 -20 -42 -22 -23 -2 -47
-10 -53 -18 -17 -20 -64 -17 -102 6 -38 23 -124 27 -210 9 -29 -6 -63 -13 -75
-15 -13 -2 -23 -11 -23 -18 0 -8 -12 -16 -27 -19 -116 -24 -142 -32 -171 -54
-23 -17 -42 -24 -62 -21 -25 4 -29 0 -39 -32 -15 -52 -74 -101 -151 -127 l-65
-22 -1 -48 c-1 -26 -2 -55 -3 -64 -2 -29 -64 -97 -108 -120 -42 -21 -46 -22
-54 -6 -12 21 -39 22 -39 2 0 -8 -4 -15 -8 -15 -4 0 -20 -28 -36 -61 -23 -51
-26 -66 -17 -86 6 -13 11 -33 11 -43 0 -11 9 -24 20 -30 11 -6 20 -20 20 -30
0 -25 -2 -25 -51 1 -43 22 -69 20 -69 -6 0 -8 -4 -15 -10 -15 -23 0 -7 -37 30
-73 63 -59 52 -88 -59 -162 -39 -27 -55 -30 -145 -35 -95 -5 -104 -7 -156 -42
-63 -41 -100 -74 -100 -89 0 -17 -105 -58 -172 -68 -35 -4 -49 -9 -32 -10 16
0 35 -6 42 -13 8 -8 15 -8 26 1 19 16 169 7 249 -14 98 -26 127 -41 127 -68 0
-27 -28 -57 -53 -57 -13 0 -17 -10 -17 -45 0 -37 -4 -47 -25 -61 -42 -27 -107
-30 -157 -5 -25 11 -61 21 -81 21 l-37 0 16 -25 c9 -14 22 -25 28 -25 7 0 21
-12 32 -27 16 -21 19 -35 13 -56 -4 -16 -4 -40 2 -54 14 -37 11 -51 -12 -58
-30 -10 -89 3 -89 20 0 8 -5 17 -11 20 -10 7 -70 -13 -79 -26 -3 -4 -26 -13
-52 -20 -44 -12 -48 -12 -87 16 -75 51 -91 71 -91 112 0 32 7 44 56 89 48 45
62 52 106 56 53 6 75 23 55 46 -18 22 -89 7 -174 -38 -85 -44 -98 -47 -107
-24 -5 13 -15 8 -49 -27 -50 -51 -143 -132 -161 -139 -7 -3 -34 -29 -60 -59
-26 -29 -75 -81 -108 -114 -33 -34 -67 -75 -75 -91 -9 -17 -20 -34 -26 -38
-13 -8 -273 1 -312 11 -16 5 -43 9 -60 10 -16 0 -82 6 -145 13 -63 7 -157 11
-208 10 -52 -2 -99 1 -105 6 -7 5 -97 10 -202 11 -104 1 -212 3 -240 4 -27 2
-82 4 -122 5 -55 1 -71 5 -67 15 6 16 -49 14 -102 -3 -43 -14 -90 -7 -126 20
-15 11 -28 17 -28 12 0 -16 -58 -34 -87 -28 -17 4 -36 19 -45 34 -15 26 -15
29 -1 38 28 17 8 42 -40 49 -30 5 -55 2 -82 -9 -24 -11 -42 -13 -48 -7 -5 5
-19 6 -31 3 -31 -10 -56 -7 -101 13 -34 15 -73 18 -268 19 -126 1 -231 -2
-233 -6 -11 -17 -104 4 -189 42 -11 5 -37 14 -59 20 -34 11 -41 10 -67 -9 -23
-17 -41 -21 -77 -19 -44 3 -47 5 -44 28 2 14 3 35 4 47 0 13 4 20 10 17 5 -4
8 6 6 22 -3 27 -6 29 -53 30 -27 1 -63 8 -78 17 -33 17 -59 13 -83 -14 -22
-24 -26 -84 -8 -118 12 -23 12 -28 -2 -38 -11 -8 -14 -18 -9 -30 8 -17 8 -17
12 0 3 9 8 17 13 17 14 0 9 -72 -6 -97 -8 -12 -14 -35 -14 -50 0 -45 -11 -77
-21 -61 -15 23 -10 -24 5 -51 12 -21 10 -30 -15 -79 -18 -34 -29 -69 -29 -95
0 -24 -7 -48 -17 -59 -11 -12 -19 -40 -21 -71 -11 -198 -13 -212 -44 -274
l-31 -63 17 -45 c10 -25 22 -45 27 -45 14 0 10 -56 -5 -69 -11 -10 -17 -8 -25
6 -9 16 -10 15 -11 -7 0 -17 11 -32 33 -47 22 -16 26 -23 14 -23 -20 0 -21 -4
-5 -30 9 -15 10 -40 1 -112 -9 -68 -9 -105 -1 -138 6 -25 10 -77 9 -117 -1
-40 3 -74 9 -78 5 -3 10 -15 10 -26 0 -17 -11 -24 -32 -20 -5 0 -8 -10 -8 -24
0 -31 27 -75 46 -75 22 0 -6 -40 -34 -46 -23 -6 -30 -28 -12 -39 5 -3 10 0 10
8 0 7 14 23 30 35 17 13 30 31 30 40 0 26 25 58 34 43 4 -6 12 -9 17 -6 5 4 9
1 9 -6 0 -8 4 -8 15 1 27 22 16 47 -17 41 -5 0 -8 6 -8 14 0 8 -7 15 -15 15
-8 0 -15 5 -15 11 0 6 9 8 21 4 19 -6 21 -4 16 14 -5 22 18 31 25 9 6 -17 28
0 28 22 0 10 -12 28 -27 40 -27 21 -27 22 -8 36 11 7 25 18 32 24 22 19 43 11
43 -16 0 -15 4 -23 10 -19 6 4 8 15 5 25 -3 10 -1 21 5 25 6 4 72 9 148 11
134 5 186 7 327 18 39 3 84 5 100 4 17 0 40 0 53 0 12 1 36 1 52 1 17 0 40 0
53 1 351 10 867 3 987 -14 19 -3 166 -10 325 -16 419 -15 598 -28 660 -47 53
-17 55 -18 55 -53 0 -20 5 -62 11 -94 11 -52 10 -61 -11 -106 -20 -43 -21 -53
-10 -80 10 -24 20 -31 51 -36 26 -4 40 -12 41 -23 3 -33 -4 -76 -14 -82 -5 -3
-9 -8 -8 -10 3 -7 -13 -44 -35 -79 -35 -58 -48 -116 -35 -156 7 -19 9 -42 6
-50 -3 -9 5 -39 19 -68 26 -54 33 -106 15 -106 -15 0 -12 -151 4 -243 9 -49
22 -87 34 -100 11 -12 21 -28 24 -36 7 -23 45 -23 61 -1 20 29 27 15 28 -59 0
-36 4 -75 8 -85 5 -12 1 -33 -10 -55 -39 -81 -42 -118 -19 -195 12 -39 30 -87
40 -106 10 -19 28 -75 40 -124 12 -50 41 -125 66 -172 44 -84 52 -112 35 -129
-17 -20 -42 -118 -36 -144 4 -17 -2 -45 -16 -76 -19 -43 -21 -59 -14 -139 8
-114 8 -130 0 -187 -6 -35 -3 -55 13 -90 11 -24 23 -79 27 -122 5 -54 14 -91
30 -120 20 -34 25 -38 31 -23 7 18 -1 261 -10 274 -2 4 4 41 15 82 17 68 33
152 61 315 11 69 38 106 71 97 12 -3 40 -16 62 -30 94 -58 140 -114 129 -157
-6 -25 -6 -25 67 -25 80 0 136 -15 169 -45 15 -13 33 -18 62 -16 26 1 47 -4
59 -15 10 -9 44 -20 76 -24 77 -11 204 -48 223 -65 9 -8 35 -17 60 -21 24 -4
55 -13 69 -21 14 -7 34 -13 43 -13 9 0 57 -16 105 -36 82 -33 95 -35 180 -33
51 2 96 0 99 -4 4 -4 12 -7 17 -7 6 0 7 3 4 7 -9 8 60 33 94 33 15 0 32 -7 39
-15 16 -19 44 -19 59 -1 6 7 26 16 43 20 17 3 47 19 67 34 50 38 148 104 185
124 34 19 98 87 113 121 59 129 81 163 216 335 123 157 177 219 307 356 106
112 120 125 141 131 11 4 19 11 19 16 0 5 6 9 14 9 7 0 19 7 27 16 15 18 80
17 119 -3 32 -15 118 -114 153 -174 20 -36 28 -65 33 -130 3 -46 12 -102 19
-124 8 -22 19 -66 25 -98 7 -32 27 -86 45 -121 18 -34 36 -77 40 -96 7 -32 37
-109 85 -215 28 -65 50 -140 50 -177 0 -36 78 -175 119 -212 12 -11 21 -27 21
-37 0 -21 16 -34 25 -20 3 6 30 -2 63 -19 31 -17 64 -30 73 -30 9 0 21 -12 28
-26 10 -24 15 -25 49 -19 20 4 39 11 40 16 2 5 8 9 14 9 6 0 16 6 22 14 13 17
71 23 106 11 14 -5 48 -9 75 -10 188 -6 265 -24 265 -62 0 -15 16 -17 25 -3 3
6 15 10 25 10 10 0 22 9 25 20 7 23 45 27 45 5 0 -8 -7 -15 -15 -15 -9 0 -12
-6 -9 -15 6 -15 26 -22 22 -7 -2 4 -1 7 2 7 3 0 26 13 53 28 43 25 57 28 140
28 117 1 184 -6 220 -20 16 -6 45 -11 65 -11 21 0 53 -5 72 -11 19 -6 59 -12
89 -15 30 -2 61 -10 70 -18 12 -11 35 -13 99 -9 78 4 82 4 82 -16 0 -16 6 -21
24 -21 14 0 28 5 31 10 4 6 15 8 25 5 10 -3 29 0 44 6 23 11 28 9 51 -17 14
-16 25 -31 25 -34 0 -11 44 -9 57 2 8 6 11 19 8 29 -4 12 3 26 22 41 79 65
151 150 145 172 -2 5 9 26 23 47 15 20 27 52 28 71 2 25 7 34 23 36 21 3 22 0
18 -80 -2 -46 -6 -147 -9 -226 -3 -79 -10 -152 -15 -162 -6 -10 -10 -36 -11
-57 0 -21 -8 -67 -18 -103 -11 -36 -26 -92 -36 -125 -9 -33 -21 -64 -26 -69
-5 -6 -9 -17 -9 -24 0 -13 -20 -60 -110 -257 -40 -88 -58 -134 -65 -165 -4
-18 -18 -48 -31 -67 -13 -20 -24 -45 -24 -55 0 -11 -10 -33 -21 -50 -17 -24
-20 -38 -16 -73 7 -50 -8 -70 -23 -30 -12 31 -26 29 -54 -8 l-20 -27 23 -16
c19 -14 22 -23 18 -53 -4 -23 -1 -43 8 -55 8 -11 15 -32 15 -48 0 -23 -4 -28
-23 -28 -13 0 -24 -6 -25 -12 -8 -60 -9 -63 -32 -60 -28 3 -43 -17 -28 -35 8
-10 14 -10 24 -2 11 9 14 7 14 -10 0 -12 -4 -29 -9 -39 -5 -9 -14 -31 -21 -48
-13 -37 -82 -75 -123 -67 -15 3 -25 8 -23 12 2 3 -2 17 -10 31 l-13 25 -2 -25
c-2 -39 -3 -44 -15 -65 -6 -11 -14 -40 -18 -65 -4 -24 -13 -51 -20 -60 -20
-22 -9 -131 13 -137 9 -2 18 -16 19 -31 2 -20 -1 -23 -10 -14 -7 7 -21 12 -33
12 -17 -1 -18 -2 -5 -13 16 -13 15 -61 -1 -52 -5 4 -14 3 -20 -1 -8 -4 -7 -9
2 -14 14 -9 50 10 43 22 -3 4 2 8 10 8 9 0 17 -6 17 -12 6 -59 3 -74 -18 -94
-13 -12 -23 -26 -23 -32 0 -11 -41 -52 -109 -108 l-34 -29 7 35 c3 19 11 37
16 38 6 2 10 10 10 17 0 8 7 18 16 23 13 7 14 13 5 28 -6 10 -15 32 -21 47
-11 30 -30 28 -30 -3 0 -10 -5 -22 -10 -25 -6 -4 -8 -11 -4 -16 3 -6 -12 -27
-35 -48 -25 -23 -41 -47 -41 -61 0 -12 -8 -28 -17 -35 -10 -7 -18 -26 -18 -41
-1 -21 -7 -29 -20 -29 -15 0 -19 8 -20 42 -1 23 -4 46 -8 49 -14 14 -57 -20
-74 -57 -13 -27 -29 -42 -58 -53 -25 -10 -41 -12 -43 -6 -5 13 -32 13 -32 0 0
-5 8 -14 18 -19 9 -6 12 -11 6 -11 -14 0 -24 -22 -31 -65 -2 -16 -11 -39 -18
-51 -14 -22 -2 -60 16 -49 23 15 6 -30 -21 -55 -34 -32 -44 -25 -35 22 6 40
-19 83 -35 58 -8 -13 -10 -12 -10 3 0 10 -4 16 -9 13 -5 -4 -6 -18 -2 -33 4
-16 3 -40 -3 -55 -7 -19 -6 -34 4 -55 18 -37 20 -53 9 -53 -19 0 -59 -49 -59
-73 0 -12 -6 -29 -12 -36 -8 -7 -13 -41 -13 -89 l0 -77 -32 -3 c-40 -4 -44
-28 -9 -42 14 -5 32 -21 42 -35 9 -14 23 -25 30 -25 10 0 13 -7 8 -24 -3 -14
0 -41 6 -61 9 -27 9 -40 1 -48 -15 -15 -14 -77 2 -77 36 1 67 52 76 129 9 78
30 79 28 2 -2 -42 2 -62 11 -66 7 -3 10 -10 7 -16 -4 -5 1 -19 10 -29 10 -11
15 -28 12 -39 -3 -14 3 -25 18 -35 31 -20 39 -1 14 34 -14 21 -16 37 -11 101
5 51 13 81 25 93 9 10 20 28 23 42 3 13 12 24 20 24 8 0 14 7 14 15 0 18 39
35 81 35 25 0 29 4 29 29 0 38 9 43 60 35 32 -5 40 -11 37 -23 -5 -16 -16 -48
-38 -113 -6 -18 -15 -53 -21 -78 -6 -25 -14 -49 -19 -54 -5 -6 -9 -21 -9 -35
0 -15 -9 -53 -20 -86 -10 -33 -25 -94 -31 -135 -7 -41 -25 -121 -40 -176 -16
-56 -29 -112 -29 -125 0 -13 -7 -46 -16 -74 -23 -72 -46 -277 -33 -290 12 -12
191 -10 322 4 52 5 137 5 210 -1 171 -12 575 -11 769 4 90 6 240 10 333 8 257
-6 399 -5 627 6 l208 10 30 29 c16 16 33 38 36 49 13 41 106 187 117 183 17
-5 26 -52 30 -160 4 -127 3 -126 179 -127 156 0 152 -4 138 137 -6 54 -11 156
-11 226 0 81 -5 149 -14 185 -19 73 -20 280 -2 307 18 26 42 115 38 140 -1 11
-12 35 -22 54 -16 28 -21 59 -25 160 -3 69 -10 167 -15 216 -17 153 -31 412
-33 590 -3 248 -14 281 -106 331 l-50 27 0 72 c0 67 -2 74 -26 90 -20 13 -34
15 -57 8 -37 -10 -50 -46 -41 -119 6 -50 5 -50 -34 -78 -37 -25 -72 -83 -72
-119 0 -39 -67 -47 -435 -48 -197 -1 -621 11 -685 19 -41 5 -104 8 -140 7 -36
-1 -70 2 -76 6 -7 6 -23 5 -40 -2 -16 -6 -73 -9 -129 -7 -55 1 -105 -1 -111
-4 -15 -10 -168 -13 -182 -4 -19 11 -14 34 8 41 16 5 19 15 19 63 0 31 6 76
15 100 8 23 13 42 11 42 -3 0 1 17 9 38 8 20 17 69 20 108 6 76 17 106 54 142
17 17 22 34 22 70 0 44 3 49 34 66 33 17 34 17 85 -5 28 -12 54 -19 57 -17 2
3 0 18 -6 34 -7 17 -9 51 -5 82 4 35 2 68 -8 100 -13 39 -16 95 -9 149 3 18
110 37 127 23 13 -10 15 -8 15 16 0 16 -4 45 -9 65 -15 66 46 243 94 271 7 4
15 18 19 31 3 13 17 29 31 35 14 6 25 16 25 21 0 5 8 12 18 14 13 4 11 5 -5 6
-30 1 -31 38 -2 75 15 19 27 25 41 20 19 -6 20 -3 15 32 -4 22 -4 33 -1 27 3
-7 12 -13 20 -13 18 0 18 -46 0 -57 -27 -15 -7 -57 40 -86 25 -15 50 -27 57
-27 7 0 17 -4 22 -9 6 -5 21 -11 35 -13 21 -2 25 -9 28 -42 2 -23 -2 -42 -9
-46 -6 -5 -14 -31 -17 -59 -4 -47 -3 -51 16 -51 41 0 86 27 152 90 21 19 60
56 88 83 42 39 52 55 58 92 12 81 -14 210 -46 230 -7 4 -26 8 -41 7 -23 0 -32
6 -45 33 -9 19 -26 37 -37 41 -43 13 -77 64 -77 116 0 44 -19 69 -61 83 -22 8
-37 21 -43 38 -13 35 3 82 27 82 23 0 35 20 29 51 -2 13 0 24 4 25 61 5 69 9
106 63 10 16 131 -37 144 -64 21 -39 34 -47 34 -19 0 17 -8 29 -23 36 -12 6
-23 20 -24 33 -2 28 -29 69 -51 78 -9 3 -25 13 -35 23 -10 9 -35 25 -55 35
-20 10 -44 24 -52 30 -8 7 -35 17 -59 24 -61 16 -124 81 -115 118 15 63 141
255 196 298 37 29 47 53 36 86 -6 15 -17 28 -26 28 -19 0 -87 134 -77 150 3 6
28 10 54 10 41 0 49 3 59 25 9 20 9 25 -2 25 -7 0 -19 -7 -26 -15 -14 -17 -36
-20 -45 -6 -3 5 1 16 9 24 8 8 18 28 22 43 4 16 14 39 21 51 8 12 14 37 13 55
-4 63 0 77 28 106 15 15 37 41 49 57 12 17 24 27 28 23 9 -9 35 -137 35 -175
0 -23 -5 -33 -21 -38 -17 -6 -20 -12 -13 -33 15 -54 10 -195 -10 -234 -16 -34
-20 -36 -33 -22 -12 11 -19 12 -27 4 -8 -8 -4 -16 14 -31 46 -36 54 -38 95
-22 22 8 68 18 102 23 59 7 65 10 110 60 52 58 123 181 123 214 0 24 37 125
52 144 16 18 84 14 128 -8 22 -11 47 -20 57 -20 10 0 27 -6 38 -14 11 -7 47
-21 80 -30 33 -9 74 -22 90 -27 17 -6 49 -15 72 -20 23 -4 50 -12 60 -18 10
-5 54 -19 98 -32 44 -12 85 -26 90 -30 6 -3 28 -12 50 -19 22 -7 45 -16 50
-20 6 -4 53 -24 105 -45 52 -20 106 -47 120 -59 14 -13 51 -35 83 -50 32 -15
72 -39 89 -54 35 -32 84 -46 92 -26 3 8 12 11 22 7 12 -4 10 2 -7 21 -13 15
-26 37 -29 49 -3 12 -15 26 -25 32 -21 11 -34 55 -16 55 6 0 11 16 11 35 0 21
5 35 12 35 8 0 9 3 2 10 -12 12 -6 70 7 70 15 0 10 26 -9 43 -10 10 -28 17
-41 17 -13 0 -26 10 -33 26 -10 22 -8 37 10 90 32 92 39 152 18 160 -18 7 -22
25 -5 22 6 -2 15 7 20 20 6 17 5 22 -6 22 -8 0 -15 -7 -15 -16 0 -8 -4 -12
-10 -9 -5 3 -10 -1 -10 -9 0 -9 -6 -16 -14 -16 -8 0 -18 -9 -21 -20 -6 -20
-35 -28 -35 -10 0 6 -9 10 -20 10 -11 0 -20 7 -20 15 0 22 -34 18 -56 -6 -10
-12 -37 -30 -59 -41 -38 -20 -59 -33 -127 -80 -29 -20 -45 -23 -139 -23 -106
1 -163 14 -173 40 -8 23 -76 36 -113 23 -38 -14 -63 1 -63 38 0 12 -4 25 -9
28 -14 9 -27 113 -23 188 3 48 53 75 162 86 56 6 102 6 112 1 9 -5 55 -10 103
-10 47 -1 88 -6 91 -11 3 -5 29 -8 57 -8 76 2 224 -7 236 -15 6 -3 11 -17 11
-30 0 -21 3 -23 38 -18 33 4 43 1 69 -26 32 -31 53 -40 53 -21 0 6 11 15 25
20 31 12 33 45 4 62 -11 7 -27 28 -36 46 -8 17 -22 32 -29 32 -8 0 -14 10 -14
22 0 24 -36 59 -127 125 -35 25 -63 46 -63 48 0 1 7 15 15 31 8 16 12 38 9 51
-4 14 4 40 20 69 15 26 24 49 21 52 -10 10 -57 -19 -52 -31 3 -9 -18 -21 -67
-38 -39 -13 -74 -28 -78 -33 -3 -5 -38 -8 -77 -7 -74 2 -105 -8 -132 -42 -17
-21 -17 -21 -125 -3 -108 18 -124 25 -124 59 0 9 -4 17 -10 17 -12 0 -13 47
-1 54 11 7 2 46 -11 46 -5 0 -8 8 -7 18 2 9 -1 32 -5 50 -10 43 -42 44 -60 0
-8 -18 -28 -38 -47 -48 -19 -9 -33 -22 -32 -28 2 -7 -4 -12 -12 -12 -9 0 -36
-20 -62 -45 -25 -25 -48 -46 -52 -46 -3 -1 -15 -3 -27 -4 -11 -1 -34 -11 -50
-22 -25 -18 -38 -20 -99 -13 -51 5 -101 2 -180 -11 -132 -23 -203 -24 -229 -4
-26 20 -80 19 -122 -1 -26 -12 -38 -14 -48 -5 -7 6 -24 10 -37 9 -15 -1 -54
17 -99 47 -87 56 -237 135 -258 135 -8 0 -27 11 -44 25 -16 14 -39 25 -51 25
-12 0 -40 9 -61 21 -27 14 -42 17 -49 10 -16 -16 -70 -13 -93 4 -10 8 -31 15
-46 15 -15 0 -45 7 -65 14 -37 14 -231 62 -343 84 -30 6 -104 17 -163 23 -59
7 -110 16 -113 20 -2 4 17 11 43 14 27 4 66 10 88 15 l40 8 -50 1 c-27 1 -86
9 -130 17 -127 25 -496 32 -840 16 -165 -7 -354 -14 -420 -15 -149 -2 -505 18
-645 38 -58 8 -161 22 -230 31 -69 9 -147 22 -175 29 -27 8 -106 25 -175 40
-69 14 -163 34 -210 45 -47 11 -107 25 -133 30 -27 5 -53 12 -58 15 -9 6 -122
28 -227 45 -35 6 -94 17 -130 25 -247 54 -783 52 -1000 -5 -41 -11 -96 -23
-123 -26 l-49 -7 4 29 c6 38 22 91 42 132 17 35 36 188 27 220 -2 11 5 66 17
123 13 57 26 138 30 179 12 111 30 211 46 245 7 17 16 48 20 70 3 22 12 50 20
62 8 12 14 34 14 48 0 48 100 226 175 312 5 6 21 26 35 44 13 17 41 48 61 68
20 20 85 90 144 156 141 156 274 289 316 318 43 28 60 36 199 93 180 73 175
72 269 40 89 -30 72 -31 246 10 39 9 99 18 135 20 35 2 105 11 155 20 50 9
130 14 180 13 56 -2 98 1 112 9 25 14 99 16 107 4 3 -5 63 -7 133 -4 70 2 171
4 223 3 52 -1 106 2 120 7 18 7 28 5 35 -5 9 -12 16 -12 38 -2 20 9 33 10 50
1 12 -6 41 -16 64 -22 23 -6 45 -15 48 -20 12 -19 57 -10 76 14 14 17 25 22
45 18 19 -3 31 1 40 13 11 15 18 16 45 6 22 -8 36 -8 45 -1 6 6 66 14 133 17
106 5 121 4 127 -10 8 -21 42 -21 68 -2 14 10 35 12 82 8 41 -4 74 -1 94 7 48
20 89 15 119 -14 27 -26 93 -37 105 -17 4 5 24 12 47 16 30 5 45 3 58 -9 10
-9 20 -13 24 -10 4 4 29 -3 56 -15 51 -22 101 -28 101 -12 0 5 11 16 25 25 24
16 26 15 66 -25 36 -36 49 -42 98 -48 32 -4 70 -16 87 -26 36 -25 57 -38 113
-73 24 -15 59 -39 76 -54 18 -16 41 -28 51 -28 29 0 117 -63 154 -109 17 -23
43 -44 56 -47 13 -3 47 -32 74 -65 28 -32 60 -61 71 -64 10 -4 19 -9 19 -13 0
-4 40 -48 89 -98 133 -137 216 -268 357 -567 48 -102 94 -276 94 -354 0 -23 5
-54 11 -70 8 -22 7 -45 -6 -103 -33 -144 -47 -195 -61 -217 -8 -12 -14 -39
-14 -60 0 -24 -11 -57 -30 -88 -21 -35 -30 -63 -30 -95 0 -25 -6 -56 -13 -70
-33 -63 -33 -63 30 -55 32 3 162 10 288 15 180 6 248 12 315 29 47 11 121 26
165 32 44 6 100 17 125 25 28 9 87 14 155 14 61 0 147 3 191 6 102 8 108 28
18 60 -89 32 -126 50 -163 83 l-35 30 13 53 c33 141 21 390 -23 477 -15 28
-26 62 -26 75 0 16 -9 32 -26 43 -38 24 -26 61 43 139 44 49 64 64 85 64 15 0
30 -6 34 -12 11 -17 22 23 23 80 1 23 8 54 17 67 9 13 12 29 8 36 -13 22 -23
170 -15 242 4 40 5 83 0 97 -4 14 -10 38 -14 55 -6 28 -8 29 -20 12 -8 -11
-11 -33 -8 -55 7 -52 -11 -92 -40 -92 -33 0 -57 30 -57 71 0 50 -11 60 -65 62
-51 2 -77 -19 -36 -30 22 -6 28 -27 11 -38 -19 -12 -91 6 -111 28 -23 25 -24
59 -3 93 19 29 21 27 -30 42 -34 10 -43 9 -67 -9 -22 -16 -32 -17 -55 -9 -34
13 -112 -2 -160 -31 -34 -21 -122 -26 -154 -9 -29 15 -41 64 -30 122 6 28 15
57 21 64 6 7 11 30 11 51 0 21 11 99 25 173 26 139 26 151 4 350 -10 86 -63
272 -86 300 -7 8 -21 33 -31 55 -24 50 -65 75 -94 57 -46 -28 -105 4 -116 65
-3 18 -12 33 -20 33 -19 0 -29 -47 -15 -76 15 -34 14 -44 -5 -44 -9 0 -34 -18
-56 -40 l-40 -39 -25 30 c-14 17 -32 28 -39 25 -8 -3 -14 -2 -14 3 0 5 -11 12
-25 15 -23 6 -25 10 -19 49 4 23 14 53 23 67 39 61 40 67 20 104 -26 49 -26
122 1 138 25 16 25 22 1 56 -10 15 -32 50 -50 77 -17 28 -38 59 -46 70 -8 10
-15 30 -15 43 0 13 -4 32 -10 42 -14 26 -188 170 -206 170 -8 0 -17 7 -20 15
-3 8 -28 28 -56 46 -37 24 -60 32 -90 31 -23 -1 -47 3 -55 9 -8 8 -32 9 -66 5
-99 -13 -241 -15 -255 -3 -8 6 -45 13 -84 16 l-71 6 -13 45 c-27 93 -94 177
-169 214 -103 49 -136 59 -192 57 -139 -5 -193 -1 -265 18 -98 26 -107 26
-147 -3 -24 -18 -41 -23 -65 -19 -39 6 -93 -17 -188 -81 -18 -12 -40 -17 -61
-14 -20 2 -39 -2 -46 -9 -7 -8 -37 -13 -76 -13 -51 0 -68 -4 -83 -20 -10 -11
-38 -23 -63 -26 -40 -5 -47 -3 -79 27 -28 27 -34 40 -33 71 2 48 9 58 37 58
13 0 29 6 35 14 6 7 25 16 42 20 19 3 54 30 95 71 36 36 74 65 84 65 10 0 22
5 25 10 4 6 -16 10 -54 10 -48 0 -65 -5 -88 -24z m909 -327 c15 -11 39 -24 53
-29 14 -5 25 -14 25 -20 0 -5 7 -10 15 -10 11 0 13 -7 9 -29 -5 -23 -2 -30 15
-36 11 -3 36 -1 55 6 28 10 38 10 50 0 24 -20 19 -29 -22 -40 -43 -12 -135
-55 -172 -81 -14 -9 -43 -23 -65 -30 -22 -7 -50 -19 -62 -27 -33 -22 -67 -13
-71 18 -3 26 13 44 63 74 17 10 17 12 1 37 -15 22 -15 27 -1 38 34 28 6 43
-53 28 -30 -7 -42 -16 -44 -31 -5 -33 -33 -32 -57 2 -29 41 -18 88 27 112 84
48 182 55 234 18z m1395 -1230 c7 -24 18 -62 27 -84 l14 -40 -36 -13 c-20 -7
-41 -17 -46 -22 -6 -6 -27 -10 -48 -10 -35 0 -38 2 -38 28 0 16 11 52 25 80
14 29 25 59 25 68 0 8 5 24 10 34 17 33 53 11 67 -41z m893 -1075 c0 -87 -80
-107 -297 -72 -56 9 -107 19 -114 23 -22 14 34 35 91 34 30 -1 74 5 97 14 24
9 70 19 103 23 50 5 64 11 78 31 15 24 16 24 29 7 7 -10 13 -37 13 -60z
m-4307 -2426 c3 -9 -1 -27 -7 -40 -13 -27 -71 -39 -140 -28 -24 3 -83 2 -132
-3 -49 -5 -159 -10 -244 -12 -86 -1 -171 -7 -191 -14 -36 -11 -298 -38 -481
-48 -94 -5 -98 -5 -98 15 0 17 8 22 38 27 20 3 55 11 77 17 22 5 69 12 105 15
36 2 99 13 142 24 42 10 106 19 142 19 37 0 66 4 66 10 0 6 45 10 113 11 61 0
134 6 162 12 28 7 133 12 247 12 175 0 197 -2 201 -17z m1338 -98 c183 -8 219
-17 219 -51 0 -29 -36 -37 -120 -27 -106 13 -154 16 -334 22 -165 5 -197 14
-183 50 7 18 63 24 167 19 41 -2 154 -8 251 -13z m504 -40 c189 -13 265 -25
265 -40 0 -5 6 -7 13 -5 19 7 38 -10 31 -28 -5 -15 -16 -17 -68 -12 -33 2
-104 7 -156 10 -107 6 -145 10 -219 20 -48 6 -51 9 -51 36 0 34 -10 33 185 19z"/>
<path d="M13256 13586 c-12 -45 -6 -65 24 -81 28 -14 30 -19 30 -71 0 -30 5
-65 11 -76 8 -15 8 -27 -2 -45 -9 -17 -10 -26 -3 -31 16 -10 24 -92 13 -114
-6 -10 -7 -28 -4 -38 6 -18 16 -20 96 -20 97 0 125 -9 177 -57 16 -15 44 -37
63 -48 21 -13 37 -32 43 -54 5 -18 19 -38 32 -43 12 -6 26 -23 30 -38 8 -26
11 -28 28 -15 18 14 17 17 -27 74 -32 40 -47 69 -47 89 0 30 -60 162 -90 197
-9 11 -22 40 -29 65 -7 25 -17 50 -23 57 -5 7 -6 22 -2 35 9 28 6 100 -5 111
-5 5 -36 10 -70 12 -46 2 -61 0 -61 -10 0 -8 5 -17 10 -20 18 -11 10 -25 -15
-25 -19 0 -28 8 -39 35 -8 19 -21 35 -29 35 -8 0 -25 20 -38 45 -13 25 -26 45
-29 46 -3 0 -12 2 -22 4 -10 2 -18 -5 -22 -19z"/>
<path d="M6605 12592 c-43 -28 -59 -50 -80 -113 -18 -55 -15 -97 5 -84 5 3 10
1 10 -6 0 -7 7 -20 16 -30 14 -15 19 -16 47 -4 27 11 41 11 87 -1 37 -10 93
-14 172 -12 137 3 144 10 75 70 -23 21 -79 72 -124 114 -75 70 -87 77 -130 81
-35 3 -56 -1 -78 -15z"/>
<path d="M7540 12470 c-14 -4 -43 -9 -65 -9 -25 -1 -72 -17 -125 -44 -73 -36
-85 -46 -88 -70 -5 -41 -57 -60 -152 -55 l-75 4 1 -40 c1 -77 3 -82 42 -101
71 -35 139 -44 201 -28 33 8 35 11 36 52 1 34 -3 45 -17 49 -39 10 -14 19 69
26 55 4 90 3 97 -4 5 -5 16 -10 24 -10 7 0 30 -11 50 -25 21 -14 51 -25 69
-25 18 0 74 -7 125 -16 63 -11 98 -13 112 -6 12 6 37 16 56 23 43 16 51 27 43
59 -23 91 -137 189 -243 208 -90 17 -134 20 -160 12z"/>
<path d="M6448 12258 c-35 -12 -35 -30 -2 -97 29 -61 26 -101 -11 -141 -29
-32 -40 -67 -25 -85 16 -20 -25 -42 -46 -24 -11 9 -16 6 -27 -19 -11 -26 -103
-102 -123 -102 -27 0 -295 -131 -301 -147 -3 -7 -20 -13 -39 -13 -19 0 -41 -8
-51 -18 -33 -33 -83 -64 -97 -59 -8 3 -23 -4 -34 -16 -11 -12 -32 -30 -46 -40
-14 -10 -33 -32 -42 -50 -9 -18 -32 -51 -52 -75 -31 -40 -33 -46 -22 -68 10
-18 11 -33 3 -58 -8 -25 -7 -39 3 -57 9 -15 13 -47 12 -84 -3 -54 -1 -60 18
-63 20 -3 44 -38 44 -66 0 -8 7 -19 15 -26 13 -10 19 -10 33 4 27 24 61 20 72
-8 13 -36 49 -56 100 -56 46 -1 138 -18 225 -43 32 -10 56 -11 68 -5 18 9 24
38 7 38 -17 0 -11 56 10 83 11 13 32 28 47 32 16 3 36 13 45 22 9 8 32 14 50
14 66 -2 74 -2 122 7 64 12 136 -3 136 -28 0 -25 24 -32 89 -24 52 5 59 3 101
-27 24 -17 58 -33 75 -34 16 -2 49 -8 73 -14 105 -27 131 -32 192 -36 97 -7
270 -34 310 -50 19 -8 51 -17 70 -20 77 -14 219 -67 253 -95 55 -45 77 -61 82
-61 19 2 25 -1 35 -19 7 -13 7 -26 2 -36 -8 -15 -12 -14 -32 6 -29 29 -44 14
-42 -41 2 -40 19 -76 30 -64 3 3 13 -2 22 -10 14 -12 26 -12 100 1 56 10 102
12 135 7 28 -4 57 -7 65 -6 8 1 36 -3 63 -9 33 -7 57 -7 78 1 25 8 36 8 52 -4
12 -8 33 -15 48 -15 34 0 93 -27 141 -63 44 -34 68 -32 86 6 14 29 31 33 64
16 18 -10 25 -8 39 10 22 26 14 58 -16 65 -28 7 -38 41 -18 57 18 16 62 19 87
6 41 -20 79 82 42 112 -14 12 -42 98 -34 106 3 3 17 -7 31 -21 l27 -27 0 35
c0 36 -20 64 -35 50 -4 -4 -4 17 0 46 7 50 6 52 -18 52 -27 0 -51 23 -62 60
-9 30 -54 80 -72 80 -7 0 -13 3 -13 8 -1 18 -109 121 -135 128 -16 4 -50 22
-75 39 -46 32 -73 44 -146 64 -45 12 -62 27 -67 58 -3 24 -51 83 -67 83 -7 0
-36 21 -66 46 -38 33 -54 54 -54 71 0 15 -12 36 -30 53 -17 16 -30 38 -30 52
0 17 -9 29 -27 37 -16 8 -35 17 -43 21 -8 4 -17 18 -20 31 -5 20 -15 26 -60
35 -54 10 -55 11 -61 49 -7 44 5 91 26 99 14 5 104 -39 116 -57 4 -5 20 -6 35
-3 16 4 48 9 70 11 91 7 185 83 169 135 -8 25 -29 25 -69 1 -50 -31 -164 -44
-203 -22 -13 6 -42 14 -65 17 -24 3 -60 10 -80 15 -21 5 -48 7 -62 3 -13 -3
-27 -1 -30 5 -11 17 -111 14 -127 -5 -10 -13 -27 -14 -98 -9 -82 7 -87 6 -115
-18 -31 -27 -59 -26 -80 4 -10 15 -18 17 -45 9 -33 -9 -40 -5 -83 52 -7 10
-49 36 -93 59 -74 39 -87 42 -163 44 -70 2 -86 5 -103 23 -11 12 -23 23 -27
23 -41 7 -62 6 -62 -2 0 -17 -24 -9 -45 14 -38 42 -75 52 -127 35z m322 -721
c25 -9 70 -20 101 -25 30 -6 93 -25 138 -43 l83 -33 111 12 c73 7 124 8 147 2
109 -29 131 -38 168 -72 23 -21 58 -46 79 -58 76 -41 106 -65 116 -91 4 -13 1
-16 -14 -12 -10 3 -19 9 -19 13 0 5 -20 16 -45 26 -25 9 -45 21 -45 26 0 6
-11 7 -25 4 -19 -5 -28 -1 -40 18 -21 32 -63 46 -152 52 -52 3 -83 0 -109 -11
-25 -10 -52 -13 -83 -9 -31 4 -57 1 -81 -10 -19 -8 -28 -16 -20 -16 10 -1 9
-4 -5 -10 -17 -7 -17 -9 -3 -9 19 -1 18 -21 -4 -108 -5 -23 -7 -46 -4 -51 3
-6 -2 -18 -11 -28 -11 -11 -18 -13 -21 -5 -7 20 -22 12 -22 -13 0 -36 -19 -45
-93 -40 -49 2 -75 9 -94 23 -14 11 -41 24 -62 27 -20 4 -46 14 -59 22 -19 12
-28 13 -49 3 -34 -16 -148 4 -178 30 -11 10 -32 21 -47 24 -24 6 -28 4 -28
-14 0 -27 -26 -27 -40 -1 -6 11 -21 21 -33 21 -18 1 -19 2 -4 6 13 3 17 11 13
26 -7 29 8 52 28 44 18 -7 22 -27 4 -27 -6 0 -8 -3 -5 -6 4 -4 13 -1 22 6 18
15 20 66 3 74 -10 5 -10 7 0 12 6 3 12 14 12 25 0 12 7 19 20 19 12 0 20 -7
20 -17 0 -15 2 -16 10 -3 6 10 5 17 -6 23 -8 5 -19 20 -25 34 -13 35 -55 29
-52 -8 1 -21 -5 -30 -30 -42 -38 -18 -92 -37 -130 -45 -15 -4 -49 -26 -76 -49
-26 -23 -65 -48 -85 -57 -21 -9 -35 -20 -32 -25 8 -13 -21 -34 -39 -27 -17 6
-21 81 -5 91 6 3 10 15 10 26 0 21 67 89 87 89 7 0 30 15 50 34 78 70 227 133
365 155 26 4 51 11 55 15 12 13 183 0 233 -17z m492 -359 c2 -17 10 -23 28
-23 15 0 26 -7 28 -18 4 -21 42 -23 42 -1 0 10 7 14 18 12 9 -2 16 -9 15 -16
-2 -7 4 -9 14 -5 11 4 14 2 9 -5 -4 -7 7 -13 30 -18 19 -3 38 -13 41 -21 7
-18 70 -45 110 -47 39 -2 47 -9 34 -33 -5 -10 -13 -27 -17 -38 -6 -18 -8 -18
-11 -2 -3 9 -8 17 -13 17 -5 0 -7 -7 -4 -15 4 -8 1 -15 -5 -15 -6 0 -10 -6 -8
-12 1 -8 -9 -13 -25 -13 -16 0 -28 4 -27 9 0 5 -5 13 -13 17 -10 7 -10 9 0 9
15 0 16 36 1 46 -8 4 -9 0 -4 -15 6 -19 3 -21 -43 -21 -47 0 -51 2 -71 36 -21
35 -22 35 -79 32 -86 -4 -103 15 -58 63 l24 26 -24 12 c-25 11 -28 19 -18 45
9 23 22 20 26 -6z"/>
<path d="M6865 11237 c-31 -23 -43 -51 -25 -62 18 -11 11 -45 -12 -54 -21 -8
-21 -8 6 -15 15 -4 33 -2 40 3 6 5 32 11 56 13 41 3 45 5 48 32 5 39 -15 81
-44 95 -32 14 -34 14 -69 -12z"/>
<path d="M4615 11770 c-4 -6 -7 -93 -7 -193 0 -127 -5 -193 -14 -217 -36 -95
-46 -184 -49 -459 -2 -230 0 -279 12 -298 11 -17 13 -33 7 -65 -5 -24 -9 -52
-9 -63 -1 -44 -8 -46 -163 -40 -177 7 -111 7 -467 -1 -313 -8 -538 -10 -665
-7 -41 1 -106 1 -145 0 -38 0 -122 5 -185 13 -133 16 -135 16 -590 24 -190 4
-358 10 -375 15 -16 5 -101 10 -188 11 -87 0 -217 3 -290 6 -73 2 -197 6 -277
9 -80 2 -190 7 -245 10 -55 3 -131 8 -169 10 -37 2 -70 6 -73 9 -3 2 -16 0
-30 -5 -23 -8 -154 4 -358 35 -16 2 -49 5 -71 5 -38 1 -41 3 -39 26 4 29 -6
31 -40 9 -14 -9 -32 -14 -40 -10 -28 10 -15 33 30 52 25 10 45 24 45 31 0 9
11 13 34 11 19 -1 33 -5 30 -10 -3 -4 11 -14 31 -22 29 -13 39 -13 61 -2 14 8
21 17 16 20 -6 3 -5 23 1 50 8 34 7 49 -3 61 -17 21 -40 19 -40 -4 0 -13 -9
-21 -30 -26 -17 -4 -30 -13 -30 -21 0 -23 -36 -16 -50 11 -7 14 -10 28 -7 32
4 3 7 1 7 -5 0 -7 13 -12 29 -12 22 0 30 5 30 18 0 9 1 32 1 51 1 18 -2 37 -7
42 -12 11 -50 15 -51 5 0 -11 -23 -26 -39 -26 -20 0 -15 49 7 67 11 10 20 22
20 27 0 5 8 18 17 28 14 16 15 21 4 27 -7 5 -22 6 -32 4 -10 -3 -19 0 -19 6 0
6 5 11 10 11 6 0 10 7 10 15 0 8 4 15 9 15 5 0 14 -7 21 -15 14 -16 55 -21 45
-5 -3 6 -1 10 5 10 6 0 8 5 5 10 -3 6 0 10 8 10 8 0 17 6 20 14 5 12 -14 27
-53 39 -12 4 -11 6 3 6 18 1 25 41 6 41 -9 0 -7 16 8 57 3 8 -3 10 -18 6 -13
-4 -18 -8 -11 -11 15 -5 16 -32 1 -32 -5 0 -7 5 -4 10 3 6 -3 10 -14 10 -15 0
-21 6 -20 23 0 21 1 21 9 2 10 -23 13 -5 4 19 -9 23 -45 20 -51 -4 -3 -11 -9
-20 -14 -20 -5 0 -9 -15 -9 -34 0 -18 -7 -39 -15 -46 -9 -7 -15 -29 -15 -52 0
-21 -7 -52 -15 -67 -8 -16 -18 -48 -21 -72 -4 -23 -13 -54 -21 -68 -7 -14 -13
-35 -13 -47 0 -11 -5 -25 -10 -30 -7 -7 -9 -377 -8 -1090 l3 -1079 30 -3 c55
-5 199 -32 249 -47 31 -9 91 -15 161 -15 61 0 189 -7 285 -15 96 -8 258 -21
360 -30 102 -9 248 -22 325 -31 77 -8 174 -17 215 -20 97 -6 360 -31 522 -50
70 -8 153 -14 185 -14 59 0 282 -27 457 -56 75 -12 130 -14 225 -9 100 5 139
3 191 -10 42 -10 148 -19 300 -26 129 -5 282 -17 339 -25 89 -13 123 -14 248
-3 157 14 140 16 387 -41 111 -25 158 -26 178 -2 17 19 38 198 62 527 20 272
37 447 55 570 6 39 11 113 11 165 0 52 5 113 10 135 18 73 14 172 -9 211 -29
48 -26 61 14 74 44 14 51 28 47 84 -4 41 -7 46 -28 46 -13 0 -24 -4 -24 -10 0
-5 -8 -14 -18 -19 -15 -8 -22 -4 -36 20 l-17 29 30 18 c24 13 32 26 37 61 5
31 3 46 -7 52 -25 16 -39 9 -62 -28 -20 -35 -22 -36 -25 -14 -2 13 1 28 7 34
6 6 11 21 11 34 0 12 14 38 30 56 17 19 30 39 30 44 0 6 9 18 20 28 27 24 25
41 -5 61 -14 9 -25 25 -25 36 0 50 -73 68 -90 22 -7 -17 -16 -24 -28 -22 -15
3 -17 16 -15 103 1 55 -3 102 -8 105 -5 4 -13 33 -18 66 -6 39 -9 48 -10 26
-1 -26 -5 -33 -18 -30 -18 3 -20 19 -16 198 1 25 -1 79 -3 120 -8 136 -6 167
12 202 16 29 17 62 16 277 -1 224 -7 283 -27 251z"/>
<path d="M14084 10628 c-24 -32 -93 -186 -100 -220 -3 -21 -10 -38 -14 -38 -5
0 -20 -37 -34 -82 -14 -46 -37 -102 -51 -126 -29 -51 -38 -115 -28 -192 l8
-55 78 -6 c97 -6 115 -21 126 -105 5 -32 6 -75 4 -94 -3 -19 3 -62 12 -95 9
-33 19 -71 23 -85 3 -14 12 -35 20 -48 13 -19 22 -22 60 -20 57 4 71 23 54 71
-13 36 -36 224 -52 427 -6 69 -17 156 -25 194 -8 38 -15 92 -15 120 0 28 -5
71 -11 96 -6 25 -14 88 -19 142 -9 104 -20 139 -36 116z"/>
<path d="M6509 10471 c-46 -18 -96 -59 -91 -74 1 -4 -18 -16 -43 -27 -40 -17
-45 -23 -45 -53 0 -18 -5 -38 -12 -45 -8 -8 -4 -14 18 -24 37 -16 72 -56 80
-88 11 -46 48 -130 57 -130 15 0 137 -127 137 -143 0 -21 57 -63 95 -71 24 -5
35 -17 50 -49 21 -45 37 -53 92 -42 24 4 40 15 51 36 9 16 24 29 32 29 8 0 29
9 45 20 17 11 43 20 59 20 16 0 50 13 76 29 26 16 56 31 66 33 11 2 20 13 22
26 3 20 7 21 42 16 36 -6 40 -4 50 20 5 14 14 26 20 26 24 0 50 41 50 78 0 40
46 123 82 150 28 21 23 60 -9 75 -16 6 -30 14 -33 18 -11 14 -48 27 -93 34
-32 5 -52 14 -62 29 -9 11 -18 20 -20 19 -10 -6 -25 -3 -24 5 4 23 -4 32 -28
32 -25 0 -25 -1 -9 -19 17 -19 17 -20 -17 -26 -23 -5 -44 -2 -63 9 l-29 15 25
1 c31 0 60 49 32 52 -37 3 -68 -4 -78 -18 -17 -21 -126 -30 -145 -12 -8 8 -37
18 -64 22 -28 5 -54 11 -60 16 -19 14 -67 21 -79 11 -8 -6 -25 -6 -51 0 -73
19 -80 19 -126 0z"/>
<path d="M5027 10004 c-4 -4 2 -19 13 -34 11 -16 20 -31 20 -35 0 -4 -29 -35
-64 -69 -48 -46 -65 -70 -70 -98 -5 -25 -3 -38 4 -38 6 0 18 -17 26 -37 9 -21
27 -49 40 -63 22 -24 22 -27 9 -54 -8 -16 -15 -43 -15 -62 0 -18 -6 -37 -14
-41 -21 -13 -41 -110 -26 -128 7 -8 19 -15 26 -15 10 0 14 -13 14 -40 0 -25
15 -71 41 -127 68 -146 83 -194 70 -215 -30 -49 10 -113 119 -189 71 -50 91
-67 115 -104 43 -65 103 -188 107 -220 2 -12 12 -21 27 -23 14 -2 33 -15 44
-28 10 -13 24 -24 31 -24 6 0 18 -6 25 -12 6 -7 15 -13 19 -13 4 0 22 -6 40
-14 23 -10 32 -20 32 -37 0 -20 9 -26 56 -40 31 -9 72 -27 91 -40 20 -13 43
-24 53 -24 9 0 37 -13 61 -30 24 -16 52 -30 61 -30 9 0 19 -4 23 -9 3 -5 20
-13 38 -17 17 -3 43 -15 56 -25 13 -11 31 -19 40 -19 9 0 31 -13 49 -30 18
-16 37 -30 43 -30 5 0 9 -15 9 -34 0 -36 16 -47 87 -61 17 -3 37 -13 44 -21 6
-8 22 -14 35 -14 17 0 24 -6 24 -20 0 -19 97 -100 120 -100 5 0 10 -7 10 -15
0 -8 4 -15 9 -15 5 0 14 7 21 15 17 20 37 19 49 -3 12 -23 -3 -42 -35 -42 -12
0 -27 -7 -34 -15 -8 -9 -20 -13 -29 -9 -60 24 -71 23 -102 -7 -22 -21 -34 -27
-43 -20 -13 11 -30 3 -33 -16 -3 -13 8 -17 97 -33 30 -5 80 -14 110 -20 30 -5
156 -10 279 -11 174 0 231 -4 252 -15 16 -8 30 -10 34 -5 3 5 30 15 60 21 30
6 55 15 55 20 0 13 36 22 108 26 38 2 82 12 107 24 46 22 195 35 225 20 10 -5
39 6 83 31 37 21 84 41 105 45 20 4 46 13 57 20 11 6 40 15 65 19 54 8 104 22
147 41 17 8 36 14 42 14 5 0 14 6 18 13 19 29 74 58 102 54 16 -3 34 -1 42 4
34 20 -62 22 -176 3 -16 -3 -85 -7 -152 -9 -90 -3 -123 0 -123 8 0 12 54 40
100 52 14 4 48 18 77 31 28 13 62 24 75 24 13 0 32 7 43 16 11 8 36 19 56 24
22 6 39 18 42 29 3 11 20 22 49 29 24 6 56 21 70 32 15 11 30 20 35 20 5 0 25
12 44 26 19 14 59 37 89 51 30 14 69 35 85 48 17 12 44 25 61 29 16 4 41 17
56 30 14 13 43 33 65 44 48 25 117 92 106 103 -12 12 -53 -1 -53 -17 0 -17
-24 -29 -75 -39 -22 -4 -45 -11 -51 -16 -7 -5 -38 -16 -70 -25 -32 -8 -66 -22
-75 -30 -10 -9 -46 -17 -88 -21 -39 -3 -71 -10 -71 -14 0 -5 -10 -9 -22 -8
-17 0 -19 2 -8 7 41 20 90 55 104 76 8 13 27 27 41 30 15 4 35 15 45 24 11 10
36 24 57 31 48 17 64 31 99 87 23 37 33 44 51 39 13 -3 25 0 30 8 4 8 32 26
61 42 34 18 63 44 80 70 15 23 40 50 55 58 15 9 34 32 42 51 8 19 21 39 29 43
7 4 17 18 20 31 6 18 4 22 -13 22 -12 0 -30 -9 -41 -20 -11 -11 -31 -22 -44
-26 -26 -6 -55 -33 -54 -49 1 -11 -71 -55 -122 -74 -19 -7 -48 -20 -64 -28
-21 -12 -27 -12 -21 -3 6 9 4 12 -6 8 -8 -3 -24 -2 -35 3 -17 6 -20 13 -16 35
3 18 0 29 -12 36 -16 9 -23 68 -8 68 5 0 7 15 5 33 -4 29 -3 30 9 12 7 -11 13
-23 13 -27 0 -9 75 -48 92 -48 37 0 34 77 -5 106 -16 12 -15 13 4 14 12 0 25
8 28 17 5 13 9 14 15 5 11 -19 56 44 58 82 3 53 -8 136 -18 136 -5 0 -23 -10
-39 -22 -29 -21 -30 -21 -51 -2 -17 15 -20 28 -17 69 2 33 -2 57 -13 72 -17
24 -105 66 -120 57 -12 -7 0 -76 15 -86 7 -5 4 -8 -6 -8 -10 0 -18 4 -18 8 0
4 -13 13 -29 19 -27 10 -29 13 -24 52 l6 41 -56 0 c-31 0 -59 5 -63 11 -3 6
-20 17 -36 24 -26 11 -39 9 -95 -10 -61 -22 -96 -48 -89 -70 1 -5 20 -19 42
-31 21 -11 39 -27 39 -35 0 -22 -29 -16 -40 9 -7 16 -16 21 -30 18 -11 -2 -29
-1 -39 3 -17 7 -18 8 -3 14 9 3 17 12 17 19 0 18 -61 51 -72 40 -14 -14 -14
-66 0 -68 6 -1 17 -2 22 -3 17 -2 11 -31 -6 -31 -30 0 -116 33 -121 46 -3 8
-9 11 -14 8 -5 -3 -12 1 -15 10 -3 8 -12 12 -20 9 -11 -4 -14 5 -14 40 0 29
-5 47 -14 50 -8 3 -16 3 -19 1 -5 -6 17 -84 32 -112 12 -22 4 -62 -13 -62 -6
0 -24 7 -40 15 -44 23 -51 19 -51 -27 0 -37 -3 -43 -22 -46 -17 -2 -24 3 -28
21 -11 41 -2 72 21 75 18 3 22 12 27 54 4 28 4 55 1 60 -6 10 -101 5 -111 -5
-3 -3 -8 -28 -11 -54 -3 -26 -13 -61 -22 -78 -15 -27 -21 -29 -61 -26 -28 1
-61 14 -91 33 l-47 30 -40 -32 -40 -33 -78 12 c-74 11 -79 11 -95 -9 -23 -29
-28 -25 -28 20 0 39 -1 40 -32 38 -28 -3 -33 0 -30 17 2 17 -4 21 -29 23 -17
1 -39 6 -47 11 -8 5 -29 5 -47 0 -33 -9 -49 -10 -168 -9 -63 1 -69 -1 -98 -30
-34 -34 -65 -34 -54 -1 4 14 -1 23 -17 32 -13 6 -27 18 -31 26 -6 9 -13 10
-27 3 -31 -17 -79 -12 -97 10 -10 11 -23 20 -31 20 -18 0 -6 -35 25 -77 24
-31 24 -32 4 -42 -16 -9 -25 -7 -47 14 -31 28 -35 30 -52 13 -8 -8 -5 -18 13
-40 25 -30 30 -53 19 -82 -8 -20 -34 -20 -79 -2 -27 12 -35 21 -35 40 0 15 5
26 10 26 6 0 9 15 8 32 -3 28 1 34 20 36 18 3 21 7 12 17 -6 7 -20 11 -30 8
-22 -6 -23 -1 -20 60 1 30 -2 37 -17 37 -10 0 -26 -9 -35 -19 -13 -15 -27 -18
-69 -15 -28 1 -57 8 -63 14 -16 16 -44 12 -56 -10 -7 -13 -21 -20 -39 -20 -26
0 -30 4 -36 40 -5 31 -13 43 -37 55 -42 20 -68 19 -68 -3 0 -10 -12 -30 -28
-45 l-27 -26 -27 22 c-26 21 -27 25 -18 71 14 70 -3 77 -57 24 -39 -38 -45
-40 -68 -30 -15 7 -25 20 -25 32 0 11 -4 20 -10 20 -16 0 -12 15 10 40 19 22
19 40 -1 40 -5 0 -9 -9 -9 -21 0 -15 -5 -19 -17 -15 -37 12 -127 26 -163 26
-32 0 -37 -3 -33 -19 3 -10 14 -23 26 -28 22 -10 22 -10 -3 -23 -14 -7 -29
-19 -33 -26 -10 -17 -27 -18 -27 -1 0 6 -12 23 -25 36 -14 13 -25 27 -25 31 0
19 -35 19 -66 -1 -38 -23 -75 -19 -54 6 26 32 -27 49 -60 20 -16 -15 -19 -13
-39 20 -25 43 -27 105 -6 165 8 24 13 45 10 48 -2 3 -24 -6 -49 -18 -42 -23
-45 -23 -69 -7 -28 18 -31 46 -8 85 7 13 11 24 9 25 -2 1 -17 12 -35 25 -32
22 -54 27 -66 16z"/>
<path d="M3293 6239 c-18 -5 -33 -16 -33 -24 0 -8 -8 -15 -17 -16 -10 0 -27
-3 -38 -5 -11 -3 -53 -10 -92 -16 -40 -6 -73 -15 -73 -20 0 -4 8 -8 18 -8 9 0
26 -7 37 -16 16 -12 38 -14 120 -8 140 9 168 29 149 102 -7 24 -20 26 -71 11z"/>
<path d="M52 5993 c-2 -190 0 -233 12 -233 23 0 76 22 76 31 0 6 10 9 23 8 49
-4 69 1 63 16 -3 8 -1 15 5 15 6 0 3 7 -6 16 -11 12 -26 15 -51 11 -25 -4 -34
-2 -34 9 0 8 5 14 10 14 6 0 10 9 10 20 0 14 7 20 23 20 l22 1 -25 19 c-14 11
-30 24 -37 30 -7 5 -16 10 -21 10 -6 0 -12 8 -16 18 -3 9 -9 23 -12 31 -4 9
-2 11 5 7 6 -4 11 -1 11 9 0 8 -11 20 -25 27 -22 10 -25 18 -28 82 -1 39 -4
-34 -5 -161z"/>
<path d="M13835 5900 c-11 -5 -45 -9 -75 -9 -30 -1 -84 -9 -120 -20 -36 -10
-99 -21 -140 -25 -90 -8 -151 -26 -285 -81 -29 -12 -82 -28 -197 -59 -80 -21
-579 -15 -708 8 -132 25 -184 18 -268 -35 -80 -50 -184 -133 -264 -210 -56
-54 -58 -57 -58 -109 0 -31 10 -81 25 -121 24 -67 47 -154 65 -252 6 -27 28
-76 55 -117 25 -38 45 -72 45 -76 0 -4 11 -30 24 -58 13 -28 36 -78 51 -111
15 -33 49 -105 75 -160 87 -185 149 -362 169 -485 5 -30 20 -98 34 -150 14
-52 28 -117 32 -145 9 -59 70 -250 91 -282 37 -59 92 -172 99 -203 4 -19 17
-51 30 -70 13 -19 28 -53 34 -75 6 -22 15 -60 22 -85 33 -132 39 -159 39 -193
0 -20 7 -69 15 -109 8 -40 19 -100 24 -133 15 -89 39 -205 51 -245 5 -19 10
-53 10 -75 0 -22 5 -57 11 -78 6 -21 14 -69 19 -105 13 -104 38 -247 49 -289
6 -21 11 -57 11 -80 0 -23 5 -45 10 -48 6 -3 10 -15 10 -25 0 -22 35 -139 56
-187 8 -17 14 -42 14 -55 0 -13 4 -28 9 -33 4 -6 11 -26 15 -45 4 -21 3 -30
-3 -21 -6 9 -11 10 -15 3 -4 -6 -13 -9 -21 -5 -10 3 -15 -1 -15 -14 0 -11 -11
-34 -25 -53 -14 -19 -25 -30 -25 -26 0 5 -7 3 -15 -4 -8 -7 -12 -16 -9 -21 3
-5 -3 -9 -14 -9 -10 0 -19 -6 -20 -12 0 -7 -3 -22 -6 -33 -2 -11 -5 -28 -5
-37 -1 -10 -7 -18 -15 -18 -8 0 -26 -13 -39 -30 -14 -16 -32 -30 -41 -30 -23
0 -46 -11 -46 -22 0 -14 -48 -58 -62 -58 -6 0 -8 -10 -4 -25 7 -26 -1 -30 -64
-37 -19 -2 -26 -11 -33 -41 -7 -27 -14 -37 -23 -33 -9 3 -19 -4 -26 -19 -6
-14 -19 -25 -29 -25 -10 0 -23 -9 -29 -20 -6 -11 -15 -20 -21 -20 -13 0 -39
-26 -39 -39 0 -6 -10 -16 -22 -22 -13 -7 -27 -18 -33 -26 -5 -7 -38 -19 -72
-25 -40 -7 -63 -16 -63 -25 0 -7 -4 -13 -10 -13 -5 0 -10 -7 -10 -15 0 -8 -4
-15 -10 -15 -5 0 -10 -7 -10 -15 0 -9 -8 -19 -17 -22 -26 -10 -53 -33 -116
-98 -43 -45 -60 -57 -66 -47 -6 10 -10 9 -14 -7 -4 -16 -14 -21 -44 -22 -21
-1 -44 -1 -50 0 -7 1 -13 -5 -13 -13 0 -8 -8 -21 -17 -28 -10 -7 -24 -25 -32
-40 -10 -20 -22 -28 -42 -28 -27 0 -53 -20 -27 -20 7 -1 -3 -8 -22 -16 -19 -8
-42 -13 -51 -11 -12 3 -15 -1 -12 -14 4 -15 0 -19 -19 -19 -13 0 -33 -7 -44
-15 -17 -13 134 -15 1271 -17 2227 -5 2161 -6 2230 15 165 51 291 177 342 342
21 69 20 4 15 3095 -2 1413 -5 1702 -16 1688 -7 -10 -16 -14 -21 -10 -4 4 -5
-13 -1 -38 3 -25 2 -52 -4 -60 -8 -13 -10 -13 -10 0 0 9 -6 6 -17 -10 -12 -17
-13 -25 -5 -28 7 -2 12 -8 12 -13 0 -6 -4 -8 -9 -5 -13 8 -19 -62 -6 -75 7 -9
7 -10 -2 -5 -7 4 -14 -6 -19 -26 -4 -18 -9 -36 -10 -40 -1 -5 -2 -16 -4 -25
-1 -10 -7 0 -14 22 -7 26 -14 36 -19 28 -5 -7 -6 -17 -3 -21 3 -5 1 -22 -4
-38 l-10 -29 4 29 c4 29 -7 75 -24 108 -5 9 -13 36 -16 60 -4 24 -27 81 -52
128 -24 47 -59 125 -77 173 -18 48 -50 114 -71 145 -45 67 -190 194 -231 203
-15 3 -47 18 -70 32 -24 15 -49 27 -56 27 -7 0 -33 12 -58 28 -63 39 -185 96
-249 117 -30 10 -73 24 -95 31 -46 16 -286 18 -320 4z m110 -578 c148 -8 163
-10 201 -34 22 -15 46 -39 51 -55 19 -48 43 -166 43 -205 0 -20 7 -67 16 -105
9 -37 19 -111 23 -163 7 -82 36 -248 72 -411 16 -72 31 -289 35 -490 2 -103 8
-206 15 -230 6 -24 16 -75 21 -114 6 -38 14 -79 19 -90 10 -21 8 -52 -4 -73
-5 -7 -7 -24 -5 -39 3 -27 -17 -44 -25 -21 -2 7 -3 1 -1 -14 2 -16 -1 -28 -6
-28 -6 0 -10 -7 -10 -15 0 -8 -11 -25 -25 -39 -14 -14 -25 -35 -25 -46 0 -22
-24 -53 -36 -48 -4 2 -13 -19 -20 -46 -7 -27 -22 -62 -33 -77 -12 -16 -21 -37
-21 -47 0 -11 -11 -27 -25 -36 -15 -10 -25 -26 -25 -40 0 -19 -8 -27 -35 -36
-27 -9 -39 -22 -59 -63 -13 -29 -27 -66 -31 -84 -3 -17 -13 -37 -21 -44 -8 -6
-14 -18 -14 -25 0 -8 -12 -17 -27 -20 -39 -10 -97 -69 -89 -90 3 -9 1 -23 -6
-32 -7 -8 -13 -20 -14 -26 0 -6 -2 -19 -2 -28 -1 -9 -14 -30 -28 -45 -24 -26
-27 -26 -38 -11 -12 16 -14 16 -24 -7 -7 -15 -17 -23 -26 -19 -11 4 -13 0 -9
-18 4 -18 3 -20 -6 -8 -9 13 -11 13 -11 -2 0 -24 -19 -32 -27 -11 -3 10 -14
36 -23 58 -12 28 -20 81 -25 175 -4 74 -11 153 -17 175 -20 80 -52 180 -58
185 -9 6 -50 91 -50 102 0 9 -57 133 -100 218 -15 30 -31 74 -35 98 -4 23 -11
44 -16 48 -5 3 -9 13 -9 22 -1 9 -9 35 -20 57 -11 22 -19 48 -20 58 0 10 -6
28 -14 40 -7 12 -16 42 -19 67 -4 25 -27 108 -52 185 -25 77 -45 145 -45 151
0 7 -9 31 -20 55 -16 37 -20 66 -20 180 0 97 -5 149 -16 185 -16 49 -88 199
-105 220 -5 6 -15 29 -23 50 -7 22 -35 71 -60 109 -25 38 -46 73 -46 77 0 5
-13 26 -29 46 -36 46 -101 196 -101 234 0 50 30 68 113 68 78 0 219 33 302 70
73 32 181 66 255 79 36 7 94 18 130 26 36 7 94 11 130 9 36 -2 137 -7 225 -12z"/>
<path d="M8065 5813 c-27 -2 -96 -10 -151 -18 -56 -8 -141 -15 -190 -15 -49 0
-107 -4 -129 -9 -22 -5 -107 -12 -190 -16 -86 -4 -168 -12 -193 -21 -23 -8
-62 -14 -85 -14 -23 0 -58 -5 -77 -10 -286 -74 -389 -112 -480 -176 -134 -94
-162 -133 -196 -269 -29 -116 -35 -171 -32 -258 3 -83 5 -90 31 -113 15 -13
40 -24 55 -24 15 0 63 -9 107 -20 66 -17 87 -27 120 -60 l40 -40 3 -197 c3
-152 0 -213 -12 -263 -8 -36 -18 -96 -21 -135 -4 -38 -13 -111 -21 -162 -7
-50 -18 -158 -24 -240 -6 -81 -15 -204 -20 -273 -14 -166 -3 -786 15 -905 16
-109 32 -252 40 -360 4 -44 11 -107 16 -140 6 -33 14 -85 19 -115 5 -30 16
-217 24 -415 13 -282 21 -384 38 -470 25 -127 30 -288 10 -353 -14 -47 -83
-122 -111 -122 -9 0 -21 -4 -27 -10 -5 -5 -36 -15 -67 -20 -78 -15 -124 -35
-143 -64 -31 -48 -66 -162 -74 -240 -5 -43 -14 -108 -20 -143 -7 -35 -9 -67
-5 -71 4 -4 479 -7 1057 -6 903 0 1051 2 1059 15 15 24 11 301 -6 366 -8 31
-15 82 -15 113 0 84 -26 238 -51 303 -15 39 -34 67 -57 85 -33 25 -40 26 -163
27 l-129 0 -41 41 -41 41 -9 204 c-9 213 -18 278 -44 329 -36 69 -86 333 -104
547 -6 65 -18 141 -26 168 -30 94 2 207 77 267 116 95 417 199 573 198 90 -1
159 -60 224 -195 49 -102 71 -151 71 -160 0 -5 19 -47 42 -94 34 -70 59 -103
132 -177 50 -50 102 -113 116 -140 14 -27 40 -73 58 -102 17 -29 32 -54 32
-57 0 -2 33 -53 74 -113 143 -210 157 -251 116 -332 -22 -44 -60 -76 -141
-118 -76 -41 -111 -90 -132 -189 -14 -66 -15 -90 -7 -129 7 -27 16 -96 21
-154 14 -170 34 -292 57 -345 11 -27 23 -63 26 -80 10 -48 108 -234 147 -279
l37 -41 428 2 c376 1 435 3 474 18 40 15 113 27 245 39 22 2 83 11 135 20 52
10 129 21 170 26 41 5 97 14 125 20 27 5 95 14 150 19 55 5 113 14 128 20 16
6 45 11 66 11 20 0 41 4 47 10 5 5 33 14 62 20 79 15 127 50 162 121 30 59 31
65 27 167 -2 61 -10 126 -19 152 -9 25 -24 74 -33 110 -10 36 -23 79 -30 95
-28 63 -44 111 -51 145 -3 19 -10 40 -15 45 -4 6 -13 44 -18 85 -32 230 -76
316 -214 418 l-52 37 -155 0 c-171 0 -167 -1 -258 72 -50 41 -181 189 -217
245 -69 109 -188 250 -336 398 -224 223 -339 416 -342 571 -2 98 21 124 222
262 55 37 171 153 171 171 0 4 13 27 29 51 16 24 32 58 36 76 4 19 11 39 15
44 16 21 32 188 26 259 -17 166 -58 457 -76 536 -11 47 -26 121 -34 165 -18
101 -45 226 -53 238 -3 5 -9 34 -14 65 -4 32 -13 80 -19 107 -6 28 -18 78 -26
112 -8 34 -14 95 -14 134 0 125 -46 264 -107 326 -45 45 -114 98 -165 126 -25
14 -63 36 -85 49 -51 31 -158 83 -208 101 -104 38 -140 41 -415 43 -251 2
-339 7 -560 34 -72 8 -301 10 -405 3z m255 -623 c63 -4 136 -14 161 -20 72
-18 288 -8 374 18 97 29 118 28 149 -9 26 -30 26 -32 26 -209 0 -109 4 -190
11 -207 14 -35 37 -138 50 -223 5 -36 14 -96 20 -135 5 -38 17 -108 25 -155
19 -110 21 -234 4 -288 -17 -55 -61 -90 -132 -103 -252 -48 -349 -58 -583 -59
-99 -1 -214 -5 -255 -11 -41 -5 -106 -14 -145 -19 -224 -31 -255 -26 -318 52
-65 82 -80 197 -51 382 14 85 15 113 4 177 -10 63 -9 100 6 232 15 138 15 168
4 240 -8 45 -15 118 -17 162 -3 72 -1 83 19 108 31 37 137 67 248 68 47 1 114
5 150 9 36 4 81 6 100 4 19 -3 87 -9 150 -14z"/>
<path d="M50 2846 c0 -1681 3 -2370 11 -2408 43 -206 219 -365 430 -388 87 -9
3781 -13 3834 -4 l30 5 0 262 c0 144 6 305 13 357 6 52 17 194 23 315 7 121
14 254 16 295 5 91 -11 149 -47 167 -57 29 -197 6 -322 -51 -31 -14 -64 -26
-73 -26 -9 0 -30 -7 -46 -16 -17 -8 -63 -24 -104 -34 -118 -30 -176 -63 -247
-139 -54 -58 -66 -79 -86 -142 -12 -41 -27 -103 -32 -139 -4 -36 -14 -85 -20
-110 -28 -111 -34 -140 -44 -221 -7 -57 -17 -91 -28 -103 -17 -16 -18 -16 -18
-1 0 10 -5 15 -13 12 -17 -6 -39 27 -31 47 4 11 -4 16 -33 21 -58 10 -63 13
-63 35 0 11 -6 20 -14 20 -8 0 -28 14 -46 30 -18 17 -38 30 -46 30 -8 0 -14 8
-14 18 0 11 -13 23 -34 32 -21 8 -39 25 -50 47 -20 42 -20 41 1 46 17 5 -31
11 -51 8 -20 -4 -56 23 -86 65 -17 24 -35 44 -40 44 -5 0 -27 18 -49 40 -22
22 -47 40 -56 40 -8 0 -23 18 -32 39 -15 34 -24 41 -60 50 -28 7 -43 17 -43
27 0 14 -43 60 -99 106 -13 11 -21 29 -21 48 0 16 -5 30 -11 30 -6 0 -8 8 -4
19 5 17 0 21 -31 27 -27 5 -41 15 -56 40 -11 19 -24 34 -29 34 -5 0 -9 12 -10
28 -1 25 -1 26 -7 4 -8 -26 -28 -26 -24 -1 2 9 -9 24 -23 33 -14 9 -25 25 -25
36 0 10 -4 22 -10 25 -5 3 -10 17 -10 30 0 13 -4 27 -10 30 -16 10 -12 28 5
21 8 -3 15 0 15 7 1 31 101 75 195 86 54 7 93 17 205 53 19 7 55 15 80 19 25
4 79 17 120 29 41 12 131 32 200 46 231 45 299 79 351 172 32 59 44 125 81
452 26 226 4 344 -72 383 -45 22 -169 17 -285 -11 -44 -11 -100 -24 -125 -30
-25 -5 -72 -19 -105 -30 -33 -12 -80 -26 -105 -32 -25 -6 -80 -20 -123 -31
-50 -13 -102 -19 -145 -17 -66 3 -66 3 -76 36 -6 24 -4 56 9 120 15 71 19 142
21 387 2 165 6 316 9 335 7 34 40 125 76 206 31 71 138 134 225 134 57 0 277
41 328 62 132 52 302 98 366 98 17 0 55 9 85 19 71 25 172 36 208 22 35 -13
35 -39 2 -152 -30 -102 -48 -259 -43 -385 3 -85 5 -96 29 -120 35 -35 94 -45
162 -28 48 11 186 63 231 86 10 5 52 21 94 34 41 14 88 34 105 46 38 27 90
110 122 194 14 37 29 72 34 78 5 6 12 29 16 51 4 22 18 76 32 120 18 56 28
116 33 200 5 83 14 140 29 185 18 51 25 103 33 245 12 219 8 309 -13 331 -27
26 -84 33 -152 18 -34 -8 -89 -19 -122 -24 -33 -6 -80 -20 -104 -31 -24 -11
-76 -27 -115 -34 -39 -8 -98 -26 -131 -39 -33 -14 -72 -26 -88 -26 -27 0 -159
-48 -262 -95 -27 -13 -68 -26 -90 -30 -22 -3 -65 -17 -97 -31 -33 -14 -103
-31 -168 -40 -61 -8 -140 -26 -176 -40 -35 -13 -73 -24 -83 -24 -10 0 -24 -7
-31 -15 -6 -8 -37 -24 -68 -35 -32 -11 -73 -29 -92 -39 -36 -19 -183 -62 -277
-80 -28 -6 -134 -15 -235 -21 -425 -24 -556 -55 -653 -156 -76 -80 -265 -486
-265 -569 0 -40 33 -59 91 -52 73 9 119 -13 119 -56 0 -17 -4 -44 -9 -61 -22
-72 -33 -173 -71 -626 -6 -74 -16 -153 -21 -175 -6 -22 -13 -56 -16 -75 -3
-19 -14 -46 -25 -60 -10 -15 -20 -36 -21 -48 -2 -26 -12 -28 -33 -7 -9 8 -12
15 -8 15 5 0 3 5 -3 11 -6 6 -21 8 -33 4 -18 -6 -20 -9 -9 -16 12 -7 11 -9 -1
-9 -15 0 -60 96 -63 135 -1 11 -8 26 -14 33 -7 7 -13 21 -13 31 0 26 -34 61
-59 61 -14 0 -21 6 -21 18 0 10 -11 25 -25 32 -13 7 -27 26 -30 42 -4 15 -14
35 -23 44 -13 13 -13 19 -3 36 17 28 -13 88 -43 85 -12 -1 -24 7 -31 19 -6 12
-17 29 -24 38 -21 25 -70 134 -64 140 4 3 0 6 -9 6 -9 0 -21 17 -29 42 -7 22
-28 59 -46 80 -18 22 -37 57 -43 79 -6 21 -15 39 -20 39 -6 0 -10 7 -10 15 0
8 -12 18 -27 21 -34 9 -44 22 -37 49 4 16 3 17 -5 5 -9 -12 -11 -10 -11 10 0
15 -4 30 -10 36 -5 5 -12 36 -15 69 -7 67 -28 129 -51 152 -10 11 -13 25 -8
47 5 24 3 28 -6 19 -7 -6 -15 -32 -17 -57 -6 -50 -19 -60 -29 -21 -3 14 -10
25 -15 25 -4 0 -11 17 -14 38 -19 121 -44 206 -69 223 -4 4 -4 8 2 10 18 7 -6
49 -28 49 -11 0 -23 8 -26 18 -3 9 -12 30 -20 45 -7 16 -14 42 -14 58 0 21 -7
32 -28 43 -22 11 -28 22 -30 52 -2 21 -7 43 -11 49 -4 5 -14 45 -22 88 -12 69
-15 77 -35 77 -24 0 -37 21 -28 45 4 8 2 15 -4 15 -5 0 -10 10 -10 23 0 12 -6
51 -14 87 -10 43 -12 67 -5 72 9 6 -53 38 -74 38 -5 0 -7 20 -5 45 5 49 -10
73 -17 28 -4 -27 -4 -27 -6 4 0 17 -6 33 -12 35 -6 2 -14 39 -18 83 -4 49 -11
80 -18 83 -10 3 -13 -472 -13 -2352z"/>
</g>
</svg>
